<?xml version="1.0" encoding="utf-8"?>
<!-- Generator: Adobe Illustrator 16.0.0, SVG Export Plug-In . SVG Version: 6.00 Build 0)  -->
<!DOCTYPE svg PUBLIC "-//W3C//DTD SVG 1.1//EN" "http://www.w3.org/Graphics/SVG/1.1/DTD/svg11.dtd">
<svg version="1.1" xmlns="http://www.w3.org/2000/svg" xmlns:xlink="http://www.w3.org/1999/xlink" x="0px" y="0px"
	 width="260.987px" height="313.484px" viewBox="0 0 260.987 313.484" enable-background="new 0 0 260.987 313.484"
	 xml:space="preserve">
<g id="Layer_2">
</g>
<g id="Layer_1">
	<g>
		<g>
			<path fill="#3C0D6C" d="M242.735,94.572c-61.33-9.34-111-61.34-111.33-61.34c-51.33,50-110.67,61.34-110.67,61.34
				c-0.66,157.66,109.67,190.33,111,189.83C260.075,226.902,242.075,94.572,242.735,94.572z M220.265,171.872
				c-14.939,44.4-45.061,77.58-89.57,98.7c-8.889-3.29-29.719-13.45-49.199-34.27c-30.131-32.2-46.141-76.45-47.641-131.61
				c18.76-5.35,59.15-19.91,97.551-53.74c19.449,17.29,55.689,44.71,98.789,54.46C230.845,133.722,225.294,156.912,220.265,171.872z
				"/>
		</g>
		<g>
			<path fill="#3C0D6C" d="M64.255,160.052c0,36.34,29.449,65.8,65.791,65.8c0.648,0,1.299-0.01,1.949-0.03v30.69
				c-0.57,0.31-1.141,0.6-1.711,0.89c-8.059-3.65-24.219-12.4-40.029-29.3c-26.4-28.21-41.189-66.76-44.02-114.68
				c20.92-6.9,53.119-20.69,85.119-46.71c0.211,0.18,0.43,0.35,0.641,0.52v27.06c-0.65-0.02-1.301-0.03-1.949-0.03
				C93.704,94.262,64.255,123.722,64.255,160.052z"/>
		</g>
		<g id="Search_4_">
			<g>
				<g>
					<path fill="#3C0D6C" d="M170.327,204.055c-0.627,0-1.251-0.152-1.806-0.441c-0.37-0.186-0.7-0.423-0.987-0.71l-24.775-24.785
						l-0.072-0.083l-0.282-0.376l-0.434,0.204c-3.493,2.295-7.544,3.508-11.716,3.508c-11.751,0-21.311-9.56-21.311-21.31
						c0-11.75,9.56-21.31,21.311-21.31c11.756,0,21.32,9.56,21.32,21.31c0,4.18-1.216,8.227-3.517,11.703l-0.239,0.362l0.325,0.288
						c0.042,0.038,0.084,0.069,0.126,0.101l24.826,24.824c0.302,0.302,0.534,0.619,0.693,0.945c0.81,1.52,0.521,3.411-0.692,4.617
						C172.354,203.647,171.37,204.055,170.327,204.055L170.327,204.055z M130.255,145.312c-8.133,0-14.75,6.617-14.75,14.75
						c0,8.133,6.617,14.75,14.75,14.75s14.75-6.617,14.75-14.75C145.005,151.929,138.388,145.312,130.255,145.312z"/>
				</g>
			</g>
		</g>
		<path fill="#3C0D6C" d="M130.046,107.092c-29.25,0-52.961,23.71-52.961,52.96c0,29.25,23.711,52.97,52.961,52.97
			c10.359,0,20.02-2.98,28.18-8.12c-0.041-0.04-0.09-0.08-0.131-0.12l-7.16-7.16c-6.18,3.45-13.311,5.41-20.889,5.41
			c-23.74,0-42.98-19.24-42.98-42.979c0-23.73,19.24-42.97,42.98-42.97c23.738,0,42.979,19.24,42.979,42.97
			c0,7.479-1.91,14.5-5.27,20.63l7.221,7.21l0.08,0.08c5.039-8.101,7.949-17.67,7.949-27.92
			C183.005,130.802,159.294,107.092,130.046,107.092z"/>
	</g>
</g>
</svg>
