<?xml version="1.0" encoding="utf-8"?>
<!-- Generator: Adobe Illustrator 16.0.0, SVG Export Plug-In . SVG Version: 6.00 Build 0)  -->
<!DOCTYPE svg PUBLIC "-//W3C//DTD SVG 1.1//EN" "http://www.w3.org/Graphics/SVG/1.1/DTD/svg11.dtd">
<svg version="1.1" id="Layer_1" xmlns="http://www.w3.org/2000/svg" xmlns:xlink="http://www.w3.org/1999/xlink" x="0px" y="0px"
	 width="362px" height="392px" viewBox="0 0 362 392" enable-background="new 0 0 362 392" xml:space="preserve">
<g>
	<g>
		<g>
			<g>
				<g>
					<path fill="#F4D9BF" d="M140.566,350.963c-0.915-2.138-4.789-4.537-7.521-6.268c-3.174-2.008-5.969-4.424-8.765-6.922
						c-2.884-2.575-3.84-4.063-4.157-4.966c-0.292-2.492-0.671-6.371-0.884-8.871c-0.487-5.771-1.185-11.523-1.59-17.309
						c-0.19-2.751-1.392-13.979-1.742-16.809c-0.593-4.782-0.473-9.843-1.729-14.548c-3.91,1.26-8.034,1.781-12.195,1.918
						c0.559,3.08,1.506,6.095,1.854,9.221c0.513,4.614,1.148,9.188,1.934,13.765c1.431,8.31,2.112,16.705,3.011,25.077
						c0.475,4.413,1.211,8.822,1.413,13.254c0.134,2.943-0.3,6.04,0.436,8.89c0.214,0.348,0.498,0.704,0.877,1.098
						c3.259,3.383,7.664,5.775,11.839,7.824c4.033,1.977,8.415,4.445,13.055,3.452c1.635-0.349,3.731-0.961,4.629-2.513
						C142.216,355.224,141.377,352.851,140.566,350.963z"/>
					<path opacity="0.5" fill="#EFCAA7" d="M114.925,279.101c-0.183-1.293-0.415-2.572-0.747-3.829
						c-3.91,1.26-8.034,1.781-12.195,1.918c0.21,1.165,0.477,2.322,0.749,3.48C106.898,280.75,110.964,280.164,114.925,279.101z"/>
					<path fill="#FAA819" d="M119.876,346.849c1.774-3.608,4.966-5.407,8.579-5.501c-0.917-0.744-1.82-1.504-2.709-2.283
						c-6.933-0.31-9.382,6.475-10.101,12.889c0.804,0.559,1.637,1.073,2.478,1.573C118.44,351.242,118.854,348.93,119.876,346.849z"
						/>
					<path fill="#F58020" d="M140.566,350.963c-0.836-1.95-4.137-4.121-6.787-5.802c-1.085,2.664-4.051,4.629-7.113,4.494
						c-3.054-0.135-5.741-2.516-7.955-4.371c-2.976-2.493-5.902-5.03-8.58-7.839c0.023,0.352,0.046,0.707,0.064,1.061
						c0.134,2.943-0.3,6.04,0.436,8.89c0.214,0.348,0.498,0.704,0.877,1.098c3.259,3.383,7.664,5.775,11.839,7.824
						c4.033,1.977,8.415,4.445,13.055,3.452c1.635-0.349,3.731-0.961,4.629-2.513C142.216,355.224,141.377,352.851,140.566,350.963z
						"/>
					<path fill="#F26322" d="M141.243,352.766c0.125,1.057,0.007,2.097-0.572,3.009c-0.759,1.194-2.499,1.278-3.749,1.286
						c-2.117,0.01-4.242-0.21-6.281-0.809c-4.578-1.345-8.77-3.809-12.539-6.703c-1.979-1.521-3.877-3.145-5.885-4.63
						c-0.711-0.522-1.408-1.056-2.026-1.666c0.009,1.408,0.095,2.805,0.439,4.143c0.214,0.348,0.498,0.704,0.877,1.098
						c3.259,3.383,7.664,5.775,11.839,7.824c4.033,1.977,8.415,4.445,13.055,3.452c1.635-0.349,3.731-0.961,4.629-2.513
						C141.864,355.831,141.695,354.24,141.243,352.766z"/>
				</g>
				<g>
					<path fill="#F4D9BF" d="M53.526,353.851c0.687-2.219,4.279-5.02,6.812-7.028c2.943-2.336,5.467-5.032,7.983-7.814
						c2.595-2.865,3.383-4.449,3.604-5.378c0.027-2.511-0.009-6.406-0.062-8.915c-0.128-5.789-0.047-11.584-0.258-17.378
						c-0.098-2.758-0.1-14.049-0.053-16.901c0.084-4.816-0.572-9.835,0.179-14.647c4.021,0.839,8.176,0.918,12.329,0.611
						c-0.231,3.124-0.853,6.221-0.866,9.363c-0.02,4.646-0.163,9.259-0.46,13.895c-0.542,8.41-0.327,16.835-0.332,25.256
						c-0.005,4.438-0.269,8.897,0.001,13.328c0.179,2.941,0.94,5.972,0.509,8.887c-0.179,0.368-0.419,0.75-0.756,1.181
						c-2.88,3.712-7.006,6.557-10.94,9.039c-3.8,2.396-7.897,5.316-12.613,4.819c-1.665-0.175-3.812-0.561-4.872-2.007
						C52.342,358.265,52.919,355.817,53.526,353.851z"/>
					<path opacity="0.5" fill="#EFCAA7" d="M71.391,279.675c0.042-1.307,0.137-2.604,0.339-3.887
						c4.021,0.839,8.176,0.918,12.329,0.611c-0.087,1.184-0.231,2.36-0.377,3.539C79.55,280.461,75.442,280.311,71.391,279.675z"/>
					<path fill="#FAA819" d="M73.662,347.565c-2.146-3.397-5.515-4.849-9.113-4.561c0.831-0.835,1.647-1.686,2.45-2.558
						c6.861-1.045,10.017,5.44,11.413,11.744c-0.74,0.64-1.514,1.241-2.302,1.825C75.56,351.781,74.9,349.527,73.662,347.565z"/>
					<path fill="#F58020" d="M53.526,353.851c0.625-2.027,3.677-4.538,6.131-6.489c1.361,2.536,4.521,4.174,7.552,3.715
						c3.018-0.455,5.439-3.109,7.446-5.19c2.695-2.795,5.338-5.631,7.699-8.709c0.015,0.355,0.029,0.711,0.048,1.064
						c0.179,2.941,0.94,5.972,0.509,8.887c-0.179,0.368-0.419,0.75-0.756,1.181c-2.88,3.712-7.006,6.557-10.94,9.039
						c-3.8,2.396-7.897,5.316-12.613,4.819c-1.665-0.175-3.812-0.561-4.872-2.007C52.342,358.265,52.919,355.817,53.526,353.851z"/>
					<path fill="#F26322" d="M53.044,355.717c-0.013,1.063,0.218,2.087,0.888,2.931c0.885,1.107,2.623,1.008,3.865,0.88
						c2.108-0.215,4.195-0.658,6.161-1.472c4.408-1.824,8.313-4.717,11.754-7.994c1.81-1.725,3.523-3.538,5.362-5.227
						c0.65-0.599,1.289-1.203,1.839-1.874c0.138,1.402,0.202,2.8,0,4.167c-0.179,0.368-0.419,0.75-0.756,1.181
						c-2.88,3.712-7.006,6.557-10.94,9.039c-3.8,2.396-7.897,5.316-12.613,4.819c-1.665-0.175-3.812-0.561-4.872-2.007
						C52.757,358.83,52.751,357.231,53.044,355.717z"/>
				</g>
				<path fill="#12A149" d="M87.076,167.802c3.931,0.108,36.338-0.813,36.746,0.137c0.406,0.949,0.542,19.391-0.273,19.932
					c-0.812,0.543-10.031,0.133-10.031,1.085c0,0.949,13.153,81.359,12.338,82.852c-0.813,1.489-10.44,6.369-36.746,6.643
					c-28.102,0.29-36.476-3.389-36.612-5.017c-0.134-1.626,3.392-43.935,12.066-68.75c0,0-16.676-12.61-16.676-13.965
					C47.888,189.363,62.121,167.126,87.076,167.802z"/>
				<path opacity="0.3" fill="#12A149" d="M71.153,198.222c2.005-1.469,3.603-2.998,4.617-5.311
					c0.546-1.248,1.032-2.511,1.474-3.794c-3.157-1.351-6.729,0.539-9.204,2.568c-1.471,1.205-3.686,2.959-5.765,2.233
					c-2.512-0.873-4.241-2.817-6.062-4.664c-1.457-1.479-3.091-2.77-4.562-4.227c-2.475,2.987-3.765,5.28-3.765,5.69
					c0,1.121,11.423,9.953,15.359,12.961C65.852,201.822,68.575,200.116,71.153,198.222z"/>
				<path opacity="0.3" fill="#12A149" d="M76.008,174.508c1.185,1.998,2.182,4.153,3.556,6.032c0.429,0.589,1.974,3.199,3.167,2.41
					c0.856-0.571,2.676-4.09,3.443-3.64c1.64,0.965,5.307,4.245,5.798,3.512c1.083-1.626,2.723-3.944,3.642-5.666
					c1.724-3.229,3.441-6.669,5.8-9.528c-6.744,0.096-12.779,0.217-14.337,0.174c-5.064-0.137-9.676,0.68-13.829,2.063
					C74.152,171.421,75.088,172.959,76.008,174.508z"/>
				<path opacity="0.3" fill="#12A149" d="M113.518,188.956c0-0.952,9.219-0.542,10.031-1.085c0.507-0.334,0.646-7.565,0.581-13.231
					c-2.575,5.317-8.023,9.227-13.921,7.18c3.263,7.322,3.674,15.733,4.743,23.582c1.372,10.094,1.443,20.54,1.47,30.722
					c0.012,5.327-0.113,10.654,0.048,15.982c0.143,4.828,0.348,9.749-0.513,14.524c-0.614,3.419-1.558,6.791-4.136,9.283
					c-0.342,0.329-0.703,0.637-1.067,0.929c10.265-1.636,14.57-4.061,15.103-5.034C126.67,270.315,113.518,189.905,113.518,188.956z
					"/>
				<path fill="#82C341" d="M120.184,179.854c-0.109,2.795-0.262,5.587-0.559,8.362c1.905-0.061,3.599-0.125,3.924-0.345
					c0.815-0.542,0.679-18.983,0.273-19.932c-0.082-0.191-1.463-0.304-3.638-0.369C120.616,171.638,120.334,175.779,120.184,179.854
					z"/>
				<path fill="#82C341" d="M64.102,206.049c0.962-0.551,1.85-1.248,2.752-1.931c0.756-0.575,1.567-1.077,2.343-1.619
					c-6.51-5.01-12.499-10.642-18.645-16.091c-1.759,2.297-2.664,3.97-2.664,4.311c0,1.354,16.676,13.965,16.676,13.965
					C64.41,205.134,64.252,205.588,64.102,206.049z"/>
				<path opacity="0.3" fill="#12A149" d="M58.49,266.095c-0.405-6.124,0.683-12.641,1.706-18.667
					c1.389-8.217,3.284-16.34,4.678-24.561c0.709-4.174,1.393-8.365,2.325-12.5c0.495-2.2,1.079-4.388,1.592-6.581
					c-0.678,0.454-1.355,0.907-2,1.398c-0.981,0.748-1.965,1.463-3.057,1.975c-8.072,25.046-11.37,64.7-11.237,66.274
					c0.08,0.958,3.024,2.629,11.178,3.78C60.618,274.288,58.789,270.551,58.49,266.095z"/>
				<path opacity="0.3" fill="#12A149" d="M100.046,218.246c-1.889-2.358-3.829-4.675-5.68-7.064
					c-2.563-3.304-5.493-6.716-7.496-10.469c-3.24-0.375-6.526,0.357-9.723,0.883c-2.991,8.668-5.116,17.592-7.508,26.438
					c-0.647,2.385-1.164,4.78-1.676,7.197c-0.293,1.377-0.771,2.855-0.669,4.276c0.331,4.467,8.151,2.325,11.711,1.811
					c0.048-0.077,0.12-0.146,0.23-0.176c1.4-0.401,2.782,0.061,4.219-0.087c1.494-0.15,2.915-0.571,4.388-0.814
					c2.463-0.401,5.239-0.639,7.498-1.768c1.907-0.954,1.38-3.242,2.542-4.891c1.524-2.16,3.572-3.806,4.87-6.168
					c1.124-2.047,1.189-3.771-0.138-5.739C101.818,220.49,100.938,219.361,100.046,218.246z"/>
				<path fill="#82C341" d="M78.379,176.576c0.941,1.595,2.774,4.205,3.92,5.021c0.689,0.494,2.895-3.261,3.369-3.707
					c0.155-0.148,0.423-0.169,0.573,0c1.53,1.681,4.522,3.927,4.996,3.749c2.46-3.321,4.236-6.317,6.406-9.83
					c0.856-1.39,1.712-2.777,2.564-4.166c-6.243,0.097-11.666,0.198-13.131,0.159c-4.521-0.123-8.682,0.515-12.478,1.636
					C74.909,170.577,77.038,174.3,78.379,176.576z"/>
				<path fill="#FED938" d="M83.775,194.529c0,0,21.828,26.972,21.326,28.479c-0.502,1.505-11.667,13.174-14.174,12.796
					c-2.509-0.377-9.412-39.268-9.412-39.268L83.775,194.529z"/>
				<path opacity="0.5" fill="#FED938" d="M93.655,225.433c-0.827-2.554-1.715-5.201-2.153-7.855
					c-0.163-1.016-0.207-1.959,0.631-2.674c0.361-0.312,0.84-0.418,1.236-0.665c1.062-0.666,0.404-2.354-0.064-3.206
					c-0.865-1.586-2.189-3.027-2.771-4.754c-0.348-1.034-0.604-2.236,0.132-3.123c-3.816-4.826-6.89-8.626-6.89-8.626l-2.26,2.006
					c0,0,6.902,38.891,9.412,39.268c0.925,0.138,3.034-1.366,5.344-3.392C95.306,230.121,94.423,227.796,93.655,225.433z"/>
				<path fill="#FEEC5C" d="M81.515,196.536c0,0-11.037,43.156-9.912,45.414c1.133,2.26,22.584-2.383,23.337-3.638
					c0.75-1.253-9.534-33.746-10.788-41.022L81.515,196.536z"/>
				<path fill="#FEEC5C" d="M75.306,236.66c0.159-1.706,0.337-3.411,0.663-5.09c0.268-1.381,0.581-4.068,1.982-4.874
					c1.649-0.956,2.475,1.337,2.733,2.534c0.152,0.695,0.245,1.615,0.683,2.202c1.234,1.661,2.603-0.628,2.813-1.386
					c0.132-0.412,0.234-0.834,0.309-1.264c0.342-2.214,0.29-4.498,0.228-6.735c-0.122-4.363-0.772-8.974-0.011-13.306
					c0.197-1.133,0.844-2.029,1.684-2.457c-1.091-3.949-1.934-7.223-2.237-8.996l-2.638-0.753c0,0-11.037,43.156-9.912,45.414
					c0.268,0.533,1.664,0.679,3.642,0.58C75.197,240.578,75.124,238.585,75.306,236.66z"/>
				<path fill="#FDB72E" d="M84.031,196.825c-0.111-0.125-0.283-0.113-0.39-0.029c0.048-0.496,0.106-0.993,0.135-1.492
					c0.021-0.392-0.562-0.59-0.702-0.181c-0.788,2.287-0.859,4.905-1.168,7.301c-0.395,3.042-0.417,6.19-0.466,9.253
					c-0.089,5.52,0.578,10.961,0.669,16.462c0.005,0.208,0.369,0.206,0.372-0.007c0.085-5.188-0.187-10.384-0.134-15.578
					c0.028-2.833,0.193-5.66,0.411-8.481c0.179-2.318,0.599-4.6,0.851-6.902c1.116,2.321,2.717,4.381,3.784,6.743
					c1.14,2.526,2.346,5.012,3.427,7.57c0.066,0.158,0.29,0.054,0.238-0.104C89.495,206.477,87.528,200.73,84.031,196.825z"/>
				<path fill="#EFCAA7" d="M84.758,176.287c0.113,0.147,0.645,0.749,0.972,0.873c0.572,0.244,1.017-0.324,1.916-1.369
					c1.256-1.458,2.295-3.06,3.132-4.784c-0.139-1.598-0.289-3.216-0.235-4.792c-0.285-0.058-0.594-0.047-0.858-0.034
					c-1.115,0.044-2.212-0.011-3.321-0.139c-1.335-0.158-3.46-0.353-4.684,0.249c-0.036,0.019-0.064,0.041-0.09,0.064
					c0.104,1.881,0.155,3.762,0.216,5.644C82.712,173.479,83.73,174.954,84.758,176.287z"/>
				<path opacity="0.5" fill="#EFCAA7" d="M86.935,171.268c1.392,0.041,2.619-0.191,3.818-0.542c-0.13-1.508-0.261-3.026-0.21-4.512
					c-0.285-0.058-0.594-0.047-0.858-0.034c-1.115,0.044-2.212-0.011-3.321-0.139c-1.335-0.158-3.46-0.353-4.684,0.249
					c-0.036,0.019-0.064,0.041-0.09,0.064c0.081,1.477,0.132,2.954,0.177,4.429C83.332,171.363,85.469,171.223,86.935,171.268z"/>
				<path opacity="0.5" fill="#EFCAA7" d="M85.941,175.695c-1.677-0.101-2.806-2.422-3.985-3.462c0.868,1.4,1.83,2.792,2.801,4.054
					c0.113,0.147,0.645,0.749,0.972,0.873c0.572,0.244,1.017-0.324,1.916-1.369c0.495-0.572,0.939-1.182,1.361-1.801
					C88.01,174.653,87.236,175.771,85.941,175.695z"/>
				<path fill="#10743B" d="M114.557,195.436c-0.609-4.458-1.543-8.71-3.357-12.838c-0.072-0.163-0.309-0.058-0.25,0.107
					c1.486,4.132,5.757,26.412,5.751,26.154C116.542,204.354,115.165,199.895,114.557,195.436z"/>
			</g>
			<g>
				<g>
					<g>
						<path fill="#FBAD18" d="M169.841,161.375c-2.265-1.997-4.729-3.685-7.296-5.212c0.727,0.362,1.448,0.759,2.156,1.202
							c0.974,0.673,1.942,1.353,2.959,1.963c0.294,0.179,0.629-0.228,0.377-0.469c-0.97-0.934-2.034-1.783-3.15-2.551
							c0.51,0.273,1.013,0.537,1.514,0.79c0.93,0.812,1.8,1.72,2.585,2.79c0.181,0.245,0.589,0.042,0.431-0.239
							c-0.542-0.949-1.211-1.83-1.946-2.661c-0.014-0.061-0.042-0.124-0.112-0.178c-0.036-0.03-0.074-0.055-0.113-0.085
							c-0.016-0.018-0.027-0.036-0.045-0.055c0.015-0.087-0.017-0.184-0.12-0.246c-0.082-0.047-0.166-0.088-0.246-0.136
							c-1.54-1.55-3.383-2.819-5.357-3.639c-2.175-0.904-4.447-1.433-6.716-2.043c-1.079-0.29-2.131-0.62-3.198-0.877
							c-0.013-1.071-0.208-2.203-0.938-3.02c-0.525-0.594-1.151-0.894-1.838-1.02c-0.013-0.146-0.029-0.295-0.042-0.441
							c-0.076-0.934-0.143-1.773-0.617-2.602c-0.689-1.209-2.053-1.826-3.405-1.815c-0.22-2.097-1.25-4.28-2.246-5.866
							c-1.399-2.222-3.407-2.716-5.645-2.706c-0.271-1.541-0.84-3.033-1.736-4.117c-2.065-2.501-4.549-2.867-7.4-3.189
							c-1.191-0.416-2.54-0.203-3.346,0.89c-0.58,0.778-0.747,2.069-0.575,3.272c-0.328,3.483,0.89,7.233,3.771,9.329
							c1.82,1.322,3.917,2.129,6.102,2.479c0.153,0.574,0.395,1.141,0.583,1.651c0.643,1.752,1.581,3.176,3.038,4.355
							c1.215,0.983,3.32,1.884,5.298,2.047c0.804,1.845,3.604,2.674,5.53,2.931c0.322,0.041,0.97,0.096,1.611,0.049
							c0.212,0.41,0.439,0.812,0.675,1.208c0.625,2.292,1.464,4.525,2.457,6.684c1.696,3.682,4.106,7.713,7.198,10.395
							c0.221,0.192,0.547-0.104,0.334-0.32c-2.877-2.949-4.911-6.859-6.702-10.531c-0.02-0.038-0.033-0.078-0.053-0.117
							c0.429,0.722,0.886,1.437,1.366,2.139c2.147,3.129,4.372,6.046,7.667,8.053c0.215,0.13,0.475-0.179,0.281-0.349
							c-2.821-2.455-5.231-4.92-7.304-8.059c-0.393-0.598-0.759-1.19-1.108-1.782c1.629,2.292,3.336,4.517,5.424,6.424
							c0.213,0.196,0.53-0.102,0.324-0.311c-1.246-1.256-2.343-2.632-3.374-4.057c2.043,2.283,4.148,4.686,6.729,6.346
							c0.197,0.127,0.428-0.161,0.259-0.327c-3.188-3.084-7.196-6.25-9.65-10.146c0.027,0.037,0.056,0.072,0.085,0.107
							c1.422,1.658,3.05,3.164,4.723,4.561c1.527,1.272,2.758,2.667,4.511,3.676c0.257,0.148,0.467-0.222,0.235-0.394
							c-2.683-1.962-5.164-4.515-7.459-6.981c0.337,0.31,0.687,0.61,1.042,0.877c2.08,1.576,3.992,3.336,6.212,4.719
							c0.205,0.128,0.465-0.178,0.27-0.337c-0.518-0.431-1.06-0.848-1.607-1.263c0.074-0.112,0.075-0.26-0.064-0.376
							c-2.416-2.01-4.699-4.152-6.934-6.351c0.132,0.09,0.265,0.184,0.396,0.278c3.233,3.401,7.164,6.258,11.077,8.796
							c0.228,0.145,0.508-0.201,0.299-0.376c-1.029-0.866-2.08-1.699-3.146-2.517c0.102,0.018,0.198-0.065,0.239-0.164
							c1.189,1.006,2.352,2.046,3.471,3.148c0.132,0.129,0.318-0.055,0.203-0.191c-1.268-1.516-2.671-2.858-4.139-4.121
							c0.098,0.007,0.188-0.04,0.248-0.118c1.477,1.315,2.911,2.676,4.301,4.073c0.252,0.252,0.599-0.105,0.392-0.374
							c-1.665-2.147-3.741-4.134-5.996-5.922c1.938,1.492,3.753,3.184,5.234,4.894c0.163,0.19,0.502-0.054,0.354-0.258
							c-0.757-1.054-1.634-2.066-2.58-3.027c0.621,0.458,1.24,0.918,1.865,1.38c0.215,0.161,0.499-0.196,0.292-0.367
							c-0.57-0.481-1.135-0.956-1.704-1.42c1.196,0.813,2.376,1.64,3.543,2.525C169.773,161.821,170.008,161.522,169.841,161.375z
							 M162.207,159.104c-1.225-0.984-2.48-1.934-3.746-2.878C159.757,157.136,161.007,158.083,162.207,159.104z"/>
						<path fill="#F89A1C" d="M145.033,140.622c-0.023-1.894-0.607-3.818-1.735-5.261c-1.164-1.489-3.917-3.965-6.104-3.34
							c-0.847-4.467-5.873-7.412-10.389-7.244c-0.119,0.006-0.157,0.197-0.03,0.213c2.24,0.314,4.23,1.135,6.184,2.268
							c2.663,1.546,3.634,4.182,3.907,7.088c0.024,0.259,0.364,0.258,0.399,0.006c0.082-0.614,0.073-1.202,0.01-1.773
							c0.359,0.085,0.749,0.098,1.091,0.168c1.507,0.31,2.95,1.567,3.93,2.666c2.037,2.284,1.95,5.708,1.607,8.492
							c-0.039,0.325,0.414,0.322,0.516,0.075c0.386-0.924,0.575-1.959,0.603-3.01c0.631,0.201,1.224,0.35,1.729,0.848
							c0.627,0.611,1,1.524,1.298,2.332c0.497,1.365,0.521,2.947,0.441,4.379c-0.011,0.182,0.266,0.267,0.348,0.101
							C150.031,146.17,148.63,139.982,145.033,140.622z"/>
						<path fill="#F89A1C" d="M149.849,148.905c-1.862,1.464-4.201,2.539-6.306,0.773c-0.125-0.107-0.301,0.051-0.188,0.179
							c1.022,1.135,2.14,1.664,3.68,1.49c1.245-0.145,2.764-0.983,3.168-2.23C150.274,148.9,150.002,148.79,149.849,148.905z"/>
						<path fill="#F89A1C" d="M145.826,147.029c-4.85,3.249-9.896-0.931-11.774-5.456c-0.009-0.027-0.028-0.035-0.045-0.044
							c1.729,0.198,3.543-0.008,5.338-0.729c0.213-0.086,0.11-0.432-0.108-0.426c-3.545,0.142-6.994,0.608-10.175-1.42
							c-2.833-1.8-4.387-5.127-4.932-8.316c-0.039-0.209-0.388-0.167-0.37,0.043c0.447,5.659,4.861,10.165,10.123,10.836
							c-0.053,0.027-0.097,0.085-0.08,0.152c0.624,2.988,2.479,5.127,5.093,6.663c2.148,1.261,5.761,1.18,7.292-0.93
							C146.344,147.188,146.043,146.88,145.826,147.029z"/>
						<g>
							<g>
								<path fill="#EE2424" d="M158.345,147.599c-0.698-0.942-1.74-1.636-2.657-2.341c-0.877-0.681-2.329-2.022-3.529-1.889
									c-0.265,0.029-0.449,0.146-0.538,0.404c-0.354,1.012-0.436,2.197-0.589,3.254c-0.106,0.704-0.214,1.4-0.362,2.096
									c-0.094,0.448-0.073,1.146-0.197,1.692c-0.047,0.039-0.104,0.076-0.145,0.123c-0.085,0.086-0.125,0.19-0.148,0.297
									c-2.781,0.829-6.207,2.122-8.377,3.938c-0.233,0.192-0.248,0.631-0.02,0.831c1.074,0.936,2.272,1.767,3.48,2.512
									c1.021,0.632,2.065,1.224,2.769,2.229c0.16,0.23,0.354,0.292,0.607,0.398c0.26,0.107,0.58-0.069,0.715-0.288
									c0.748-1.215,0.815-2.859,1.019-4.237c0.232-1.567,0.607-3.156,0.778-4.74c0.021-0.015,0.048-0.028,0.071-0.045
									c0.037-0.023,0.062-0.051,0.092-0.081c0.473-0.307,1.631-0.625,1.97-0.743c0.759-0.261,1.504-0.585,2.234-0.909
									c0.912-0.401,2.403-0.833,2.911-1.75C158.583,148.084,158.519,147.833,158.345,147.599z"/>
								<path fill="#DA1F26" d="M158.345,147.599c-0.129-0.172-0.28-0.333-0.429-0.49c-0.065,0.278-0.225,0.554-0.51,0.821
									c-2.653,2.497-6.976,2.166-7.531,6.655c-0.205,1.665-0.094,5.024-2.576,5.049c-0.127,0-0.249-0.012-0.373-0.021
									c0.416,0.324,0.795,0.687,1.108,1.132c0.16,0.23,0.354,0.292,0.607,0.398c0.26,0.107,0.58-0.069,0.715-0.288
									c0.748-1.215,0.815-2.859,1.019-4.237c0.232-1.567,0.607-3.156,0.778-4.74c0.021-0.015,0.048-0.028,0.071-0.045
									c0.037-0.023,0.062-0.051,0.092-0.081c0.473-0.307,1.631-0.625,1.97-0.743c0.759-0.261,1.504-0.585,2.234-0.909
									c0.912-0.401,2.403-0.833,2.911-1.75C158.583,148.084,158.519,147.833,158.345,147.599z"/>
								<path fill="#D02027" d="M152.744,151.34c-0.095-0.391-0.625-0.636-0.919-0.845c-0.198-0.143-0.401-0.282-0.596-0.423
									c-0.097-0.071-0.203-0.133-0.31-0.193c-0.006-0.012-0.016-0.025-0.025-0.035c-0.216-0.235-0.555-0.204-0.782-0.02
									c-0.234,0.193-0.348,0.543-0.468,0.811c-0.155,0.349-0.44,0.827-0.23,1.205c0.095,0.177,0.271,0.267,0.414,0.397
									c0.192,0.173,0.384,0.339,0.597,0.494c0.333,0.24,0.597,0.636,1.067,0.521c0.369-0.095,0.574-0.653,0.809-0.92
									C152.529,152.069,152.84,151.711,152.744,151.34z"/>
							</g>
						</g>
					</g>
					<g>
						<path fill="#FBAD18" d="M9.703,173.435c1.167-0.877,2.356-1.697,3.557-2.502c-0.569,0.461-1.138,0.929-1.711,1.407
							c-0.207,0.169,0.075,0.529,0.291,0.372c0.625-0.458,1.248-0.914,1.871-1.373c-0.951,0.959-1.836,1.963-2.601,3.01
							c-0.15,0.208,0.189,0.455,0.355,0.265c1.496-1.705,3.316-3.38,5.267-4.86c-2.268,1.773-4.356,3.747-6.036,5.883
							c-0.209,0.269,0.134,0.625,0.388,0.377c1.399-1.39,2.843-2.743,4.329-4.046c0.06,0.078,0.146,0.125,0.251,0.12
							c-1.48,1.25-2.892,2.587-4.169,4.09c-0.118,0.137,0.069,0.322,0.198,0.194c1.129-1.094,2.302-2.125,3.495-3.123
							c0.039,0.1,0.134,0.178,0.236,0.165c-1.067,0.81-2.125,1.636-3.159,2.493c-0.211,0.178,0.066,0.522,0.292,0.377
							c3.929-2.51,7.881-5.345,11.135-8.722c0.132-0.093,0.266-0.183,0.399-0.277c-2.251,2.184-4.549,4.313-6.976,6.306
							c-0.141,0.118-0.14,0.262-0.065,0.379c-0.551,0.411-1.094,0.825-1.616,1.251c-0.196,0.157,0.062,0.468,0.269,0.339
							c2.226-1.369,4.154-3.116,6.239-4.678c0.357-0.269,0.708-0.562,1.051-0.873c-2.315,2.452-4.813,4.99-7.505,6.934
							c-0.233,0.171-0.03,0.542,0.232,0.395c1.757-0.995,2.997-2.381,4.533-3.647c1.681-1.386,3.322-2.88,4.753-4.531
							c0.027-0.033,0.056-0.067,0.086-0.1c-2.481,3.875-6.51,7.016-9.715,10.081c-0.17,0.162,0.057,0.453,0.257,0.326
							c2.59-1.645,4.71-4.034,6.769-6.302c-1.04,1.419-2.147,2.789-3.403,4.036c-0.208,0.208,0.108,0.507,0.325,0.315
							c2.098-1.894,3.817-4.109,5.466-6.391c-0.354,0.591-0.724,1.181-1.123,1.777c-2.094,3.123-4.515,5.573-7.354,8.009
							c-0.197,0.169,0.063,0.479,0.276,0.352c3.311-1.985,5.552-4.887,7.717-8.005c0.488-0.698,0.949-1.405,1.382-2.13
							c-0.019,0.038-0.034,0.078-0.054,0.117c-1.813,3.659-3.872,7.559-6.769,10.486c-0.216,0.216,0.107,0.514,0.333,0.323
							c3.107-2.662,5.542-6.678,7.262-10.346c1.009-2.154,1.861-4.383,2.501-6.667c0.239-0.399,0.465-0.801,0.683-1.207
							c0.644,0.05,1.29,0,1.609-0.041c1.931-0.243,4.736-1.052,5.548-2.894c1.982-0.149,4.093-1.038,5.313-2.014
							c1.468-1.172,2.412-2.587,3.065-4.334c0.192-0.512,0.438-1.077,0.598-1.652c2.184-0.334,4.286-1.127,6.114-2.438
							c2.896-2.079,4.138-5.82,3.831-9.302c0.179-1.203,0.021-2.493-0.554-3.277c-0.799-1.097-2.146-1.318-3.34-0.909
							c-2.852,0.302-5.339,0.653-7.419,3.138c-0.902,1.08-1.481,2.571-1.764,4.11c-2.237-0.024-4.249,0.457-5.661,2.669
							c-1.006,1.58-2.051,3.756-2.285,5.85c-1.353-0.017-2.718,0.59-3.414,1.794c-0.479,0.827-0.553,1.665-0.635,2.597
							c-0.015,0.148-0.028,0.297-0.047,0.444c-0.686,0.119-1.313,0.415-1.842,1.007c-0.736,0.812-0.937,1.94-0.956,3.013
							c-1.07,0.25-2.126,0.573-3.207,0.856c-2.27,0.595-4.546,1.111-6.726,2.001c-1.982,0.806-3.831,2.062-5.382,3.602
							c-0.083,0.046-0.166,0.091-0.245,0.136c-0.107,0.059-0.138,0.155-0.125,0.247c-0.016,0.016-0.03,0.036-0.045,0.055
							c-0.039,0.028-0.076,0.054-0.114,0.082c-0.068,0.056-0.099,0.116-0.11,0.179c-0.744,0.826-1.416,1.705-1.962,2.647
							c-0.163,0.283,0.244,0.485,0.427,0.24c0.79-1.062,1.669-1.965,2.605-2.77c0.5-0.25,1.004-0.51,1.517-0.782
							c-1.124,0.764-2.19,1.604-3.166,2.529c-0.254,0.239,0.079,0.65,0.371,0.475c1.024-0.604,2-1.275,2.974-1.946
							c0.713-0.438,1.437-0.831,2.164-1.191c-2.575,1.514-5.05,3.184-7.328,5.167C9.288,173.271,9.522,173.57,9.703,173.435z
							 M20.868,168.049c-1.268,0.936-2.533,1.878-3.765,2.854C18.31,169.89,19.567,168.952,20.868,168.049z"/>
						<path fill="#F89A1C" d="M34.398,152.53c0.034-1.893,0.63-3.813,1.767-5.25c1.171-1.479,3.944-3.938,6.126-3.3
							c0.876-4.46,5.92-7.376,10.436-7.177c0.117,0.006,0.155,0.198,0.028,0.213c-2.242,0.298-4.235,1.106-6.197,2.229
							c-2.673,1.525-3.659,4.156-3.952,7.063c-0.025,0.259-0.366,0.255-0.398,0c-0.079-0.612-0.067-1.201,0-1.771
							c-0.361,0.084-0.747,0.093-1.092,0.16c-1.508,0.301-2.962,1.548-3.947,2.641c-2.052,2.27-1.986,5.693-1.659,8.482
							c0.037,0.324-0.418,0.32-0.519,0.066c-0.379-0.922-0.564-1.958-0.582-3.01c-0.632,0.198-1.225,0.343-1.733,0.837
							c-0.635,0.609-1.01,1.52-1.312,2.322c-0.51,1.362-0.544,2.944-0.473,4.378c0.01,0.179-0.266,0.263-0.35,0.096
							C29.365,158.047,30.804,151.868,34.398,152.53z"/>
						<path fill="#F89A1C" d="M29.526,160.784c1.853,1.474,4.186,2.566,6.302,0.812c0.126-0.104,0.302,0.057,0.184,0.183
							c-1.025,1.129-2.149,1.65-3.683,1.467c-1.247-0.15-2.76-1.003-3.155-2.25C29.104,160.777,29.374,160.666,29.526,160.784z"/>
						<path fill="#F89A1C" d="M33.564,158.931c4.827,3.282,9.899-0.864,11.807-5.381c0.012-0.022,0.027-0.032,0.043-0.042
							c-1.728,0.189-3.539-0.031-5.328-0.763c-0.215-0.088-0.108-0.433,0.109-0.423c3.543,0.16,6.991,0.652,10.185-1.354
							c2.842-1.783,4.417-5.102,4.985-8.286c0.037-0.209,0.386-0.167,0.37,0.046c-0.486,5.655-4.93,10.132-10.194,10.77
							c0.054,0.028,0.095,0.088,0.083,0.155c-0.646,2.982-2.515,5.109-5.14,6.626c-2.156,1.246-5.77,1.144-7.286-0.975
							C33.044,159.088,33.347,158.783,33.564,158.931z"/>
						<g>
							<g>
								<path fill="#EE2424" d="M20.949,160.172c0.504,0.918,1.99,1.362,2.898,1.77c0.729,0.328,1.476,0.657,2.229,0.925
									c0.34,0.118,1.493,0.445,1.964,0.754c0.029,0.03,0.056,0.06,0.093,0.082c0.023,0.014,0.051,0.031,0.072,0.047
									c0.16,1.583,0.525,3.173,0.746,4.742c0.195,1.378,0.252,3.023,0.991,4.244c0.133,0.218,0.453,0.395,0.712,0.291
									c0.257-0.104,0.448-0.164,0.611-0.391c0.711-1.002,1.756-1.589,2.783-2.214c1.213-0.736,2.416-1.559,3.495-2.487
									c0.234-0.2,0.216-0.637-0.014-0.833c-2.16-1.829-5.575-3.144-8.353-3.991c-0.019-0.104-0.06-0.208-0.143-0.301
									c-0.043-0.043-0.097-0.082-0.146-0.124c-0.118-0.546-0.096-1.243-0.186-1.691c-0.144-0.697-0.247-1.394-0.347-2.097
									c-0.15-1.061-0.224-2.243-0.57-3.258c-0.087-0.259-0.271-0.378-0.534-0.41c-1.199-0.139-2.659,1.195-3.539,1.866
									c-0.923,0.702-1.972,1.389-2.674,2.325C20.863,159.652,20.799,159.904,20.949,160.172z"/>
								<path fill="#DA1F26" d="M29.926,171.097c-0.37-0.944-0.468-1.922-0.616-2.92c-0.194-1.333-0.128-3.927-1.308-4.913
									c-1.603-1.333-5.827-2.344-6.533-4.328c-0.148,0.157-0.298,0.313-0.429,0.484c-0.177,0.231-0.241,0.484-0.091,0.752
									c0.504,0.918,1.99,1.362,2.898,1.77c0.729,0.328,1.476,0.657,2.229,0.925c0.34,0.118,1.493,0.445,1.964,0.754
									c0.029,0.03,0.056,0.06,0.093,0.082c0.023,0.014,0.051,0.031,0.072,0.047c0.16,1.583,0.525,3.173,0.746,4.742
									c0.195,1.378,0.252,3.023,0.991,4.244c0.133,0.218,0.453,0.395,0.712,0.291c0.257-0.104,0.448-0.164,0.611-0.391
									c0.078-0.109,0.171-0.194,0.257-0.294C30.841,172.271,30.251,171.94,29.926,171.097z"/>
								<path fill="#D02027" d="M26.615,163.199c0.1-0.39,0.631-0.632,0.926-0.838c0.198-0.143,0.403-0.28,0.603-0.423
									c0.096-0.068,0.201-0.128,0.303-0.189c0.011-0.011,0.02-0.023,0.03-0.033c0.217-0.236,0.554-0.203,0.783-0.011
									c0.231,0.19,0.343,0.542,0.461,0.809c0.152,0.35,0.437,0.831,0.223,1.206c-0.096,0.176-0.271,0.266-0.416,0.395
									c-0.192,0.174-0.388,0.34-0.599,0.489c-0.336,0.24-0.604,0.637-1.072,0.513c-0.367-0.094-0.569-0.654-0.804-0.921
									C26.826,163.932,26.519,163.568,26.615,163.199z"/>
							</g>
						</g>
					</g>
					<path fill="#FEBE10" d="M143.854,99.385c-0.377-2.101-0.904-4.206-1.599-6.261c-1.556-4.607-3.951-8.956-7.31-12.433
						c-3.316-3.429-7.221-6.529-11.466-8.744c-2.123-1.104-4.566-1.974-6.985-1.865c-0.591,0.027-1.176,0.077-1.758,0.131
						c-1.187-1.045-2.786-1.735-4.149-2.407c-2.566-1.263-5.316-1.695-8.059-2.396c-5.915-1.51-11.982-1.966-18.065-1.427
						c-13.635,1.204-31.709,10.142-39.833,21.229c-2.169,2.967-15.594,27.048-10.412,44.164c1.607,5.309,2.874,9.413,5.533,14.473
						c1.724,3.288,4.186,6.179,7.269,8.082c1.131,1.702,2.507,3.218,4.047,4.588c0.058-1.605-0.03-3.215-0.014-4.608
						c0.065-5.622,0.192-11.243,0.253-16.864c0.077-7.054,3.188-13.079,9.985-15.699c3.741-1.444,7.789-1.973,11.779-2.102
						c6.209-0.2,12.426-0.179,18.633,0.096c6.265,0.275,12.527,0.743,18.755,1.51c4.167,0.514,8.547,1.006,12.041,3.543
						c3.422,2.48,4.874,7.187,4.723,11.257c-0.186,5.172-1.371,10.409-2.333,15.488c-0.613,3.24-1.408,6.358-2.541,9.27
						c0.822-0.868,1.586-1.783,2.257-2.758c1.479-0.375,2.93-0.952,4.147-1.712c4.426-2.769,9.201-9.367,11.507-13.853
						C148.601,123.869,146.462,114.02,143.854,99.385z"/>
					<path fill="#FEBE10" d="M143.037,124.522c-2.907,0.154-5.471-2.672-7.128-4.755c-2.126-2.671-2.756-6.23-4.014-9.325
						c-0.085-0.209,0.13-0.472,0.346-0.455c3.096,0.243,6.062-0.766,8.836-2.058c-5.711-1.56-10.692-3.968-14.977-8.211
						c-3.402-3.368-7.659-7.717-8.221-12.71c-0.026-0.233,0.249-0.406,0.455-0.346c2.89,0.845,5.275,2.828,8.135,3.818
						c1.35,0.467,2.709,0.893,4.044,1.379c-6.482-4.707-12.075-11.122-14.056-18.938c-0.06-0.234,0.111-0.442,0.346-0.454
						c3.278-0.165,6.872,0.269,9.852,1.734c1.304,0.641,2.49,1.468,3.683,2.285c-2.147-1.729-4.443-3.279-6.856-4.538
						c-2.123-1.104-4.566-1.974-6.985-1.865c-0.591,0.027-1.176,0.077-1.758,0.131c-1.187-1.045-2.786-1.735-4.149-2.407
						c-2.566-1.263-5.316-1.695-8.059-2.396c-5.915-1.51-11.982-1.966-18.065-1.427c-1.147,0.101-2.327,0.262-3.528,0.47
						c7.131-0.467,14.605-0.124,21.343,2.401c2.934,1.099,6.259,2.498,8.248,5.023c1.66,2.106,1.041,5.187-0.388,7.241
						c-3.178,4.568-8.594,6.401-13.109,9.349c4.667-1.726,9.334-3.453,14.111-4.858c0.297-0.087,0.575,0.261,0.405,0.527
						c-6.909,10.884-20.882,16.053-32.892,18.746c-7.825,1.755-16.082,2.797-24.1,2.845c-4.134,0.024-8.212-0.211-12.138-1.615
						c-1.709-0.611-3.359-1.349-4.981-2.144c0.307,0.501,0.623,0.993,0.958,1.461c1.485,2.083,3.524,4.595,6.238,4.941
						c0.253,0.032,0.381,0.203,0.347,0.455c-0.703,5.156-1.237,10.332-1.603,15.523c-0.018,0.247-0.215,0.389-0.455,0.347
						c-4.604-0.825-7.867-3.902-9.688-7.803c-0.402,4.301-0.196,8.574,0.987,12.483c1.607,5.309,2.874,9.413,5.533,14.473
						c1.724,3.288,4.186,6.179,7.269,8.082c1.131,1.702,2.507,3.218,4.047,4.588c0.058-1.605-0.03-3.215-0.014-4.608
						c0.065-5.622,0.192-11.243,0.253-16.864c0.077-7.054,3.188-13.079,9.985-15.699c3.741-1.444,7.789-1.973,11.779-2.102
						c6.209-0.2,12.426-0.179,18.633,0.096c6.265,0.275,12.527,0.743,18.755,1.51c4.167,0.514,8.547,1.006,12.041,3.543
						c3.422,2.48,4.874,7.187,4.723,11.257c-0.186,5.172-1.371,10.409-2.333,15.488c-0.613,3.24-1.408,6.358-2.541,9.27
						c0.822-0.868,1.586-1.783,2.257-2.758c1.479-0.375,2.93-0.952,4.147-1.712c4.426-2.769,9.201-9.367,11.507-13.853
						c3.241-6.302,4.895-11.64,5.559-16.673C145.026,124.048,144.11,124.465,143.037,124.522z"/>
				</g>
				<g>
					<path fill="#EFCAA7" d="M136.796,128.131c-2.636-1.322-6.56-0.278-7.463,2.611c-1.034,1.366-1.642,3.155-1.237,4.597
						c0.338,2.896,1.96,6.56,4.755,7.051c3.711,0.655,6.63-1.758,7.499-5.282C141.206,133.628,140.1,129.79,136.796,128.131z"/>
					<path fill="#EFCAA7" d="M47.689,129.683c-1.153-3.342-5.443-6.225-8.847-4.953c-4.479,1.672-5.861,7.112-3.336,11.114
						c1.213,1.92,2.926,3.793,5.002,4.786c1.911,0.917,4.382-0.093,5.896-1.306C49.452,136.875,50.017,132.552,47.689,129.683z"/>
					<path fill="#F4D9BF" d="M130.389,109.941c-7.842-5.442-17.127-21.448-17.127-21.448
						c-18.571,23.371-66.594,19.688-66.594,19.688s-1.12,14.888-1.601,31.697c-0.177,6.236,1.916,11.348,4.617,15.314
						c4.844,4.966,11.868,8.101,18.168,10.697c11,4.53,23.91,4.926,35.473,2.5c6.028-1.267,12.693-4.135,17.582-8.57
						c1.289-1.294,2.536-2.679,3.698-4.167C134.669,142.772,130.389,109.941,130.389,109.941z"/>
					<path opacity="0.5" fill="#EFCAA7" d="M123.76,127.146c-4.987-2.112-10.611-0.54-13.719,3.937
						c-2.514,3.62-3.968,8.575-2.832,12.949c1.146,4.416,5.073,9.639,10.214,8.336c0.199-0.051,0.376,0.064,0.441,0.25
						c1.023,2.917,1.043,6.615-0.136,9.704c1.118-0.771,2.186-1.604,3.178-2.503c1.289-1.294,2.536-2.679,3.698-4.167
						c4.144-5.304,5.854-13.988,6.435-22.371C129.13,130.665,126.692,128.389,123.76,127.146z"/>
					<path fill="#CC9966" d="M133.936,132.346c-1.685,1.071-2.36,3.324-2.273,5.237c0.009,0.244,0.392,0.227,0.42-0.006
						c0.066-0.539,0.21-1.132,0.407-1.712c0.072-0.035,0.133-0.082,0.205-0.165c0.216-0.255,0.632-0.278,0.907-0.117
						c0.424,0.247,0.608,0.736,1.022,0.99c0.275,0.168,0.568-0.014,0.558-0.332c-0.025-0.708-0.719-1.35-1.349-1.576
						c-0.282-0.102-0.563-0.101-0.831-0.029c0.087-0.179,0.177-0.363,0.27-0.524c0.299-0.501,0.832-0.912,1.358-1.145
						c0.922-0.411,1.332,0.537,1.73,1.119c0.164,0.242,0.613,0.125,0.62-0.176C137.035,132.325,135.191,131.541,133.936,132.346z"/>
					<path fill="#CC9966" d="M41.663,130.211c-1.347-1.09-3.003-0.536-3.62,1.029c-0.094,0.247,0.237,0.437,0.4,0.225
						c0.47-0.6,1.117-1.129,1.936-0.906c0.607,0.164,1.131,0.838,1.499,1.306c0.034,0.042,0.056,0.082,0.087,0.126
						c-0.252,0.107-0.481,0.253-0.635,0.389c-0.296,0.257-0.484,0.596-0.64,0.951c-0.165,0.394-0.339,1.002-0.229,1.423
						c0.047,0.175,0.308,0.307,0.431,0.11c0.155-0.254,0.298-0.458,0.409-0.735c0.112-0.286,0.265-0.572,0.45-0.814
						c0.204-0.262,0.448-0.341,0.711-0.394c0.325,0.842,0.439,1.748,0.763,2.616c0.133,0.356,0.606,0.218,0.673-0.1
						C44.317,133.446,43.173,131.431,41.663,130.211z"/>
					<path fill="#FAA51A" d="M113.446,114.691L113.446,114.691c0.363-0.196,0.448-0.857-0.03-0.986
						c-3.583-0.957-7.321-1.826-10.527-3.77c-0.232-0.141-0.562,0.129-0.355,0.364c0.143,0.164,0.292,0.32,0.45,0.465
						c-0.206,0.044-0.329,0.371-0.118,0.521c2.873,2.044,6.812,4.056,10.405,4.089C113.662,115.377,113.83,114.866,113.446,114.691z
						"/>
					<path fill="#FAA51A" d="M73.957,110.289c-1.29,1.172-3.759,1.601-5.371,2.284c-1.834,0.778-3.756,1.364-5.564,2.196
						c-0.4,0.185-0.222,0.783,0.21,0.733c0.186-0.022,0.37-0.053,0.554-0.086c-0.001,0.225,0.175,0.443,0.466,0.423
						c1.957-0.141,3.657-0.899,5.446-1.635c1.533-0.632,3.404-1.566,4.528-2.817c0.115-0.127,0.016-0.277-0.119-0.316
						c0.108-0.107,0.221-0.21,0.31-0.325C74.645,110.456,74.235,110.037,73.957,110.289z"/>
					<g>
						<path fill="#4DC4F1" d="M149.869,133.5c-2.384-0.697-5.035,0.278-7.473-0.274c-0.406-0.093-0.738,0.411-0.566,0.759
							c0.658,1.356,2.716,2.282,3.904,3.161c1.249,0.924,2.694,2.043,4.304,2.142c1.367,0.084,2.605-1.072,2.719-2.38
							c0.118-1.369-0.938-2.548-2.115-3.113C150.389,133.674,150.128,133.578,149.869,133.5z"/>
						<path fill="#4DC4F1" d="M142.31,142.33c-0.355-0.144-0.646-0.129-0.52,0.398c0.172,0.706,0.761,1.221,0.959,1.925
							c0.168,0.602,0.134,1.261,0.148,1.882c0.02,1.006,0.066,2.142,0.815,2.907c0.779,0.804,2.107,0.815,2.874-0.061
							c1.433-1.651,0.315-3.483-1.044-4.743c-0.717-0.665-1.549-1.205-2.335-1.779C143.102,142.78,142.673,142.474,142.31,142.33z"
							/>
						<path fill="#4DC4F1" d="M51.605,160.702c-0.073-0.279-0.536-0.433-0.64-0.075c-0.438,1.491-1.325,2.83-1.781,4.326
							c-0.4,1.324-0.437,3.754,1.69,3.403c1.306-0.21,1.71-1.311,1.749-2.539c0.023-0.77-0.279-1.607-0.438-2.358
							C51.997,162.546,51.854,161.596,51.605,160.702z"/>
						<path fill="#4DC4F1" d="M37.629,169.072c-0.252,0.124-0.478,0.286-0.685,0.468c-0.024,0.014-0.048,0.014-0.069,0.038
							c-1.589,1.828-3.148,3.799-3.659,6.225c-0.336,1.582-0.844,4.403,1.191,5.073c3.142,1.034,3.165-6.311,3.312-7.958
							c0.102-1.143,0.427-2.294,0.455-3.442C38.182,169.202,37.916,168.932,37.629,169.072z"/>
						<path fill="#4DC4F1" d="M59.612,138.027c-0.911,0.908-1.736,1.901-2.655,2.809c-1.124,1.119-2.438,2.446-2.832,4.034
							c-0.239,0.959-0.495,2.746,0.681,3.228c1.353,0.554,2.734-1.051,3.261-2.065c1.231-2.366,1.691-5.022,2.264-7.601
							C60.413,138.066,59.878,137.759,59.612,138.027z"/>
						<path fill="#4DC4F1" d="M61.568,131.67c-1.868-0.004-3.864,0.128-5.582,0.937c-1.359,0.639-3.433,2.566-2.821,4.299
							c0.529,1.504,2.584,1.003,3.68,0.48c2.044-0.979,3.259-3.442,4.963-4.869C62.096,132.276,62.013,131.67,61.568,131.67z"/>
					</g>
					<g>
						<path fill="#441F0E" d="M109.097,125.54c-0.127,2.572-1.14,4.619-2.268,4.564c-1.124-0.053-1.942-2.184-1.817-4.759
							c0.119-2.573,1.136-4.618,2.26-4.564C108.401,120.835,109.213,122.964,109.097,125.54z"/>
						
							<ellipse transform="matrix(0.9913 0.1313 -0.1313 0.9913 17.1161 -12.8768)" fill="#FFFFFF" cx="106.235" cy="123.396" rx="0.619" ry="1.414"/>
					</g>
					<g>
						<path fill="#441F0E" d="M73.171,127.16c-0.125,2.574-1.139,4.62-2.266,4.563c-1.127-0.052-1.944-2.182-1.819-4.758
							c0.122-2.572,1.136-4.617,2.262-4.563C72.477,122.456,73.288,124.585,73.171,127.16z"/>
						
							<ellipse transform="matrix(0.9916 0.1296 -0.1296 0.9916 16.7896 -8.0558)" fill="#FFFFFF" cx="70.312" cy="125.017" rx="0.62" ry="1.415"/>
					</g>
					<path fill="#CC9966" d="M110.74,131.027c-2.65-2.359-6.951-1.955-9.583,0.272c-0.212,0.179-0.008,0.563,0.254,0.427
						c2.908-1.491,5.999-1.989,8.775,0.036C110.672,132.118,111.181,131.417,110.74,131.027z"/>
					<path fill="#CC9966" d="M75.562,132.07c-3.125-1.898-7.341-1.09-10.462,0.395c-0.329,0.155-0.116,0.615,0.221,0.506
						c3.513-1.134,6.446-1.108,10.021-0.361C75.629,132.67,75.815,132.224,75.562,132.07z"/>
				</g>
				<g>
					<path fill="#EE2424" d="M131.841,99.075c-0.576-0.611-1.977-1.78-2.861-1.886c-0.275-0.034-0.486,0.126-0.607,0.356
						c-0.382,0.729-3.365,6.707-3.824,7.968c-0.204,0.56,2.988,2.845,3.156,2.65c0.684-0.8,3.413-6.269,4.44-7.768
						C132.545,99.808,132.249,99.504,131.841,99.075z"/>
					<path fill="#DA1F26" d="M127.251,101.409c0.696-1.44,1.449-2.978,3.125-3.411c0.062-0.013,0.123-0.021,0.18-0.03
						c-0.541-0.393-1.125-0.725-1.576-0.779c-0.275-0.034-0.486,0.126-0.607,0.356c-0.382,0.729-3.365,6.707-3.824,7.968
						c-0.123,0.337,0.983,1.295,1.917,1.965C125.342,105.919,126.48,102.989,127.251,101.409z"/>
					<path fill="#EE2424" d="M62.144,98.789c0.011-0.629,0.027-1.569-0.825-1.573c-1.319-0.004-3.154-0.082-4.412,0.346
						c-0.196,0.066-0.398,0.319-0.398,0.534c0.006,0.474,0.311,8.398,0.429,11.064c0.034,0.779,5.086,0.372,5.255-0.07
						C62.674,107.83,62.114,100.829,62.144,98.789z"/>
					<path fill="#DA1F26" d="M57.618,104.322c0.032-1.726-0.159-3.658,0.075-5.352c0.112-0.817,0.353-1.326,0.689-1.694
						c-0.53,0.052-1.038,0.136-1.476,0.285c-0.196,0.066-0.398,0.319-0.398,0.534c0.006,0.474,0.311,8.398,0.429,11.064
						c0.02,0.434,1.604,0.5,3.032,0.395C58.063,108.873,57.579,106.581,57.618,104.322z"/>
				</g>
			</g>
			<g>
				<path fill="#F4D9BF" d="M149.479,171.759c-0.257-3.742-2.459-7.544-4.195-10.771c-1.743-3.232-3.626-6.452-6.065-9.228
					c-1.43-1.622-2.827-3.354-4.124-5.081c-1.456-1.941-2.372-3.437-3.002-5.83c-0.903-3.41-2.52-7.508-4.886-10.187
					c-0.972-1.103-2.597-2.521-4.243-2.879c-0.892-0.725-1.943-1.283-3.064-1.64c-2.52-0.797-4.791-0.042-5.337,2.223
					c-1.871,0.476-3.074,2-3.252,3.781c-0.767,0.229-1.429,0.695-1.896,1.501c-0.989,1.715-0.704,3.53,0.206,5.11
					c-1.249,1.52-0.954,3.947-0.395,5.653c0.793,2.427,2.932,3.944,5.43,4.067c0.931,0.047,1.83-0.238,2.639-0.728
					c0.044,0.152,0.086,0.299,0.129,0.452c0.473,1.698,0.783,3.054,2.07,4.317c1.635,1.608,4.35,2.026,6.792,1.602
					c0.31,0.136,0.613,0.29,0.901,0.482c0.94,0.63,1.485,1.986,2.071,2.947c1.353,2.214,2.85,4.333,4.181,6.568
					c1.037,1.741,2.128,3.44,3.2,5.159c0.021,0.035,0.044,0.075,0.068,0.11c-1.497-0.032-2.993-0.028-4.431-0.079
					c-1.77-0.06-3.523-0.13-5.295-0.127c-0.861,0-2.107,0.067-3.023,0.099c0.032,2.248-0.034,4.553-0.055,6.781
					c-0.018,1.553,0.086,4.784,0.188,4.827c0.643,0.262,1.592,0.107,2.267,0.15c1.087,0.065,2.094,0.014,3.176-0.111
					c2.353-0.274,4.769,0.076,7.14-0.184c2.333-0.255,6.854-0.137,9.266-1.843C148.414,177.669,149.656,174.325,149.479,171.759z"/>
				<path opacity="0.5" fill="#EFCAA7" d="M126.111,177.525c-0.015-2.683,0.377-5.605,0.102-8.33
					c-0.743,0.023-1.584,0.066-2.255,0.087c0.032,2.248-0.034,4.553-0.055,6.781c-0.018,1.553,0.086,4.784,0.188,4.827
					c0.631,0.255,1.545,0.116,2.221,0.15C126.175,179.879,126.118,178.705,126.111,177.525z"/>
				<g>
					<path fill="#CC9966" d="M117.562,146.805c-0.08-0.969,0.329-1.818-0.297-2.695c-0.774-1.083-2.479-1.677-3.64-2.148
						c-0.124-0.05-0.238,0.134-0.12,0.207c0.667,0.424,1.345,0.828,2.014,1.248c1.268,0.806,1.575,1.808,1.538,3.277
						c-0.009,0.27,0.02,0.542,0.065,0.818c-0.006,0.002-0.01,0-0.014,0.004c-1.438,0.597-2.586,1.015-4.114,0.375
						c-1.896-0.793-2.811-3.056-3.188-4.919c-0.449-2.192,1.006-4.09,3.057-4.678c1.75-0.502,3.39,0.198,4.939,0.917
						c0.071,0.036,0.137-0.06,0.089-0.123c-1.342-1.743-3.643-2.007-5.673-1.488c-0.926,0.236-1.642,0.742-2.177,1.396
						c-0.892-1.633-0.616-4.328,0.804-5.498c2.024-1.66,4.794-0.27,6.624,0.949c0.216,0.141,0.429-0.146,0.24-0.314
						c-1.78-1.587-3.949-2.661-6.055-2.077c0.768-1.754,2.063-3.641,4.257-2.832c1.388,0.513,2.626,1.133,3.959,1.728
						c0.157,0.072,0.266-0.148,0.143-0.254c-1.476-1.256-3.222-2.694-5.286-2.667c0.848-1.127,1.776-1.85,3.379-1.833
						c1.394,0.012,2.618,0.568,3.863,1.095c0.14,0.057,0.267-0.154,0.133-0.235c-1.376-0.88-2.786-1.766-4.514-1.673
						c-1.692,0.089-3.252,1.002-3.849,2.645c-0.016,0.048-0.022,0.095-0.022,0.139c-1.749,0.556-3.07,2.592-3.139,4.346
						c-0.265,0.151-0.525,0.325-0.786,0.539c-1.307,1.083-2.034,5.665-0.304,6.792c-0.386,0.759-0.593,1.63-0.615,2.521
						c-0.119,4.531,4.37,8.172,8.463,6.064c0.139,0.441,0.322,0.876,0.524,1.292C117.532,148.764,117.406,147.778,117.562,146.805z"
						/>
				</g>
			</g>
			<g>
				<path fill="#F4D9BF" d="M90.627,194.97c-0.085-0.143-0.178-0.28-0.27-0.419c0.429-0.467,0.658-1.134,0.819-1.753
					c0.314-1.208-0.644-2.38-1.294-3.288c-0.009-0.009-0.02-0.018-0.025-0.027c1.115-1.924-0.213-4.308-2.069-5.322
					c-2.754-1.5-6.799-1.558-9.782-0.961c-3.213,0.64-5.051,1.998-6.954,4.518c-0.681,0.9-1.156,1.917-1.447,2.977
					c-0.406,0.844-0.603,1.852-0.908,2.721c-0.391,1.137-1.549,1.828-2.485,2.472c-2.137,1.46-4.469,3.378-6.597,4.845
					c-1.394-1.08-7.194-5.457-8.398-6.647c-1.951,1.73-4.001,7.301-4.389,11.054c-0.396,3.864-0.616,9.471,2.995,11.961
					c3.693,2.543,8.125-1.69,10.813-3.784c1.683-1.307,2.979-3.339,4.431-4.898c0.933-1.004,1.919-1.949,2.891-2.911
					c0.622-0.617,1.146-1.175,2.075-1.059c0.186,0.243,0.388,0.48,0.624,0.716c1.176,1.167,3.02,1.451,4.58,1.167
					c1.009-0.188,3.395-1.074,4.037-2c1.065-1.544,2.416-1.925,3.892-1.969c-0.011,0.482,0.132,0.938,0.5,1.303
					c1.297,1.274,3.758,1.142,4.986-0.185c1.102-1.195,1.518-2.569,1.162-3.925C91.859,199.247,91.51,196.501,90.627,194.97z"/>
				<path opacity="0.5" fill="#EFCAA7" d="M57.432,202.409c0.238-0.19,0.483-0.372,0.733-0.555c0.489-0.361,0.902-0.792,1.326-1.221
					c-1.569-1.212-7.098-5.391-8.273-6.55c-0.491,0.433-0.982,1.107-1.457,1.933C52.051,198.454,54.638,200.588,57.432,202.409z"/>
				<g>
					<path fill="#CC9966" d="M62.285,198.51c-1.556,0.906-2.998,2.055-4.37,3.225c-1.789,1.521-3.715,2.999-5.146,4.879
						c-0.082,0.107,0.066,0.258,0.172,0.17c3.153-2.7,6.26-5.463,9.42-8.15C62.421,198.583,62.36,198.467,62.285,198.51z"/>
					<path fill="#CC9966" d="M90.639,194.608c0.003-0.004,0.011-0.002,0.016-0.005c1.303-1.261,0.77-3.338-0.26-4.742
						c0.089-0.033,0.166-0.095,0.209-0.186c0.8-1.693-0.081-3.77-1.494-4.83c-1.694-1.271-3.828-1.855-5.904-2.059
						c-0.138-0.017-0.207,0.202-0.064,0.243c1.512,0.43,2.928,0.898,4.357,1.563c0.912,0.422,1.775,1.34,2.157,2.258
						c0.32,0.766,0.201,1.594,0.218,2.402c-0.068-0.064-0.13-0.128-0.198-0.189c-2.031-1.798-4.889-2.918-7.58-2.753
						c-0.12,0.01-0.095,0.17,0.004,0.196c2.063,0.513,3.827,1.102,5.669,2.214c2.057,1.24,2.827,2.984,2.395,5.246
						c-2.042-2.664-5.368-3.745-8.67-3.13c-0.157,0.031-0.17,0.297,0.005,0.298c2.655,0.011,4.776,0.792,6.924,2.347
						c0.831,0.604,1.46,1.785,1.899,2.687c0.616,1.258,0.393,2.177-0.517,2.966c-0.209-0.55-0.518-1.058-0.95-1.451
						c-1.88-1.714-4.25-1.921-6.65-2.315c-0.179-0.028-0.245,0.243-0.081,0.304c2.421,0.906,5.786,1.142,6.881,3.895
						c0.79,1.992-0.84,3.905-2.732,4.297c-1.639,0.34-2.274-0.319-2.809-1.523c0.631-0.139,1.301-0.185,2.039-0.071
						c0.322,0.046,0.386-0.383,0.134-0.521c-2.451-1.318-5.036,0.761-6.708,2.296c-1.606,1.472-3.611,1.975-5.725,1.676
						c-2.108-0.296-2.706-2.018-3.895-3.44c-0.058-0.063-0.181-0.021-0.159,0.068c0.575,2.423,2.95,4.45,5.535,4.245
						c3.17-0.249,5.165-2.937,7.848-3.977c0.246,3.531,5.735,2.579,7.118,0.023c0.401-0.731,0.527-1.636,0.411-2.506
						C92.631,199.504,91.707,196.341,90.639,194.608z"/>
				</g>
			</g>
		</g>
		<path fill="#CC9966" d="M89.709,138.596c-0.847,0.004-1.662-0.052-2.438-0.051c0.394-0.649,0.554-1.422,0.537-2.176
			c-0.014-0.607-0.302-1.571-0.846-1.905c-0.128-0.078-0.393,0.25-0.284,0.355c0.439,0.429,0.494,1.433,0.521,1.993
			c0.031,0.61-0.216,1.168-0.378,1.741c-1.484,0.055-2.808,0.415-3.908,1.955c-0.636,0.891-1.179,2.321-0.35,3.268
			c1.052,1.198,2.521,1.786,4.09,1.91c0.189,0.016,0.572-0.485,0.333-0.544c-1.671-0.417-5.521-3.191-2.676-4.912
			c1.485-0.899,3.595-0.731,5.217-1.286C89.599,138.919,89.867,138.596,89.709,138.596z"/>
		<path fill="#F3967C" d="M110.417,153.725c-1.138-4.624-8.15-5.55-11.974-5.112c-2.791,0.32-5.711,1.808-8.294,2.846
			c-4.377,1.762-8.214,2.852-12.979,2.503c-2.545-0.186-8.073-2.339-10.2,0.322c-1.136,1.421-0.943,3.115-0.098,4.531
			c0.827,3.102,3.603,5.202,6.891,5.808c6.882,1.268,13.17-1.847,19.925-0.314C100.392,165.829,112.717,163.072,110.417,153.725z"/>
		<path fill="#FFFFFF" d="M77.205,156.031c2.817,0.108,5.698-0.024,8.501-0.311c6.875-0.703,13.709-2.647,19.401-6.542
			c-2.292-0.666-4.839-0.775-6.664-0.565c-2.791,0.32-5.711,1.808-8.294,2.846c-4.377,1.762-8.214,2.852-12.979,2.503
			c-1.822-0.133-5.166-1.265-7.703-0.928C70.803,155.572,74.658,155.933,77.205,156.031z"/>
		<path fill="#EE6A5B" d="M76.635,164.916c5.789,0.184,11.249-1.924,17.053-0.607c2.374,0.539,5.451,0.537,8.335-0.1
			C94.567,159.548,84.416,160.914,76.635,164.916z"/>
	</g>
	<g>
		<g>
			<g>
				<path fill="#F4D9BF" d="M187.137,187.444c-0.588,0.186-1.104,0.367-1.427,0.444c-1.755,0.426-11.349,1.137-12.417,0.792
					c-1.434-0.467-1.238-12.987-0.903-14.677c0.252-1.276,0.517-2.553,0.721-3.828c0.37,0.004,0.745-0.016,1.132-0.082
					c1.436-0.25,2.329-1.361,3.249-2.383c0.986-1.096,1.654-2.498,2.056-3.913c0.537-1.888,1.697-3.277,3.067-4.627
					c0.739-0.729,1.711-1.827,1.744-2.939c0.027-0.82-0.023-2.229-0.951-2.628c-1.111-0.478-2.051,0.318-2.846,1.023
					c-0.584,0.521-1.161,1.071-1.698,1.651c0.25-1.033,0.458-2.077,0.601-3.106c0.233-1.76,0.483-4.418-0.924-5.826
					c-1.119-1.112-2.271-0.335-3.026,0.806c-0.063,0.1-0.115,0.205-0.162,0.313c-0.187-0.314-0.386-0.621-0.614-0.907
					c-0.606-0.77-2.106-1.172-2.732-0.169c-0.274,0.445-0.47,0.913-0.608,1.391c-0.26-0.258-0.535-0.496-0.856-0.686
					c-0.747-0.445-2.174-0.127-2.443,0.789c-0.191,0.655-0.219,1.332-0.156,2.014c-0.515-0.354-1.138-0.547-1.906-0.498
					c-1.071,0.07-1.635,1.084-1.975,1.957c-0.232,0.606-0.093,1.502-0.147,2.133c-0.092,1.058-1.441,6.178-1.581,7.81
					c-0.142,1.682,0.108,3.185,0.815,4.718c0.542,1.176,1.572,2.214,2.78,2.965c0.061,0.123,0.122,0.244,0.183,0.367
					c-1.555,7.904-1.971,16.366-0.149,24.095c0.787,3.339,18.914,3.145,23.562,2.612
					C189.039,193.781,188.294,190.536,187.137,187.444z"/>
				<path opacity="0.5" fill="#EFCAA6" d="M184.448,197.329c2.164-0.047,3.99-0.152,5.075-0.276
					c-0.484-3.272-1.229-6.517-2.387-9.608c-0.588,0.186-1.104,0.367-1.427,0.444c-0.316,0.077-0.893,0.164-1.625,0.251
					C184.509,191.178,184.659,194.275,184.448,197.329z"/>
				<path opacity="0.5" fill="#EFCAA6" d="M183.407,153.604c-1.111-0.478-2.051,0.318-2.846,1.023
					c-0.584,0.521-1.161,1.071-1.698,1.651c0.25-1.033,0.458-2.077,0.601-3.106c0.233-1.76,0.483-4.418-0.924-5.826
					c-1.119-1.112-2.271-0.335-3.026,0.806c-0.063,0.1-0.115,0.205-0.162,0.313c-0.187-0.314-0.386-0.621-0.614-0.907
					c-0.335-0.426-0.942-0.729-1.525-0.754c0.184,0.342,0.333,0.659,0.425,0.875c1.423,3.343,1.396,6.251,0.971,9.884
					c-0.053,0.452-0.696,0.473-0.718,0c-0.039-0.851-0.109-1.685-0.225-2.503c0.035,1.429-0.337,2.662-1.509,3.172
					c-0.165,0.072-0.402,0.063-0.491-0.129c-0.489-1.057-0.563-2.182-0.934-3.27c-0.302-0.887-0.856-1.671-1.493-2.382
					c0.637,1.248,1.269,2.52,1.373,3.907c0.07,0.932-0.256,2.843-1.59,2.779c-1.645-0.08-2.303-2.529-2.689-4.627
					c-0.167,4.583,1.018,11.015,6.419,8.009c0.251-0.14,0.519,0.041,0.54,0.31c0.203,2.509,1.271,4.563,2.699,6.416
					c0.546-0.447,1.021-1.001,1.5-1.534c0.986-1.096,1.654-2.498,2.056-3.913c0.537-1.888,1.697-3.277,3.067-4.627
					c0.739-0.729,1.711-1.827,1.744-2.939C184.386,155.412,184.335,154.002,183.407,153.604z"/>
				<path fill="#C39368" d="M175.125,148.182c-0.021-0.036-0.07-0.007-0.054,0.034c0.713,1.528,2.26,11.748-1.185,10.672
					c-0.017-0.006-0.033,0.002-0.045,0.002c0.456-0.708,0.471-1.663,0.484-2.505c0.035-2.549-1.079-7.155-3.698-8.321
					c-0.091-0.037-0.204,0.073-0.115,0.15c1.479,1.244,2.356,3.245,2.972,5.037c0.641,1.836,0.991,7.309-2.488,5.965
					c0.855-2.984-1.007-7.167-3.406-8.644c-0.084-0.053-0.171,0.064-0.106,0.132c2.195,2.224,4.2,5.978,2.534,9.083
					c-0.883,1.651-2.237-0.191-2.638-0.875c-0.463-0.794-0.607-1.821-0.712-2.708c-0.143-1.272-0.246-2.355-1.101-3.364
					c-0.157-0.188-0.436,0.049-0.328,0.248c1.162,2.195,0.541,4.845,2,6.923c0.75,1.07,2.258,1.787,3.165,0.482
					c0.181-0.26,0.321-0.548,0.435-0.841c0.703,0.473,1.591,0.324,2.323-0.103c0.181-0.106,0.324-0.236,0.453-0.374
					c0.014,0.032,0.018,0.065,0.051,0.086c1.652,1.336,2.669-0.479,2.799-2.058C176.722,154.117,176.849,150.894,175.125,148.182z"
					/>
			</g>
			<g>
				<path fill="#F4D9BF" d="M237.944,339.095c-0.61-1.312-1.067-2.683-1.547-4.046c-0.834-2.388-1.798-4.801-2.3-7.287
					c-1.076-5.354-2.647-10.605-3.652-15.97c-1.016-5.426-2.206-10.813-2.974-16.276c-0.382-2.723-0.81-5.463-1.083-8.201
					c-0.236-2.332-0.25-4.681-0.334-7.023c0.283-0.929,0.457-1.949,0.234-2.845c-0.254-1.002-1.4-1.635-2.313-1.87
					c-1.387-0.355-3.963,0.723-3.664,2.437c-0.093,0.021-0.168,0.087-0.156,0.202c0.063,0.909-0.24,2.111-0.317,3.03
					c-0.111,1.371-0.213,2.712-0.205,4.092c0.012,2.848,0.242,5.696,0.606,8.52c0.756,5.782,1.751,11.646,3.204,17.296
					c1.403,5.464,3.116,10.841,4.728,16.245c0.707,2.377,1.361,4.803,2.188,7.139c0.847,2.394,2.088,4.59,3.382,6.762
					c0.082,0.139,0.216,0.192,0.349,0.192c0.096,0.105,0.23,0.195,0.396,0.27c0.327,0.137,0.768,0.104,1.119,0.175
					c0.451,0.094,0.888,0.14,1.348,0.204c0.552,0.073,1.181,0.234,1.625-0.173c0.013-0.01,0.016-0.022,0.026-0.031
					c0.124-0.091,0.205-0.224,0.185-0.406C238.686,340.627,238.326,339.909,237.944,339.095z"/>
				<path fill="#F4D9BF" d="M199.997,324.019c-0.436-2.578-0.662-5.177-1.07-7.76c-0.455-2.865-1.04-5.786-1.206-8.681
					c-0.306-5.435-0.801-10.863-1.129-16.299c-0.172-2.821,0.029-5.588,0.15-8.401c0.078-1.861,0.365-3.886,0.379-5.827
					c0.247-0.58,0.18-1.258-0.099-1.851c-0.009-0.104-0.018-0.217-0.034-0.316c-0.011-0.091-0.116-0.117-0.189-0.085
					c-0.422-0.629-1.09-1.084-1.824-1.087c-1.172-0.012-2.162,0.627-2.776,1.542c-0.392,0.344-0.694,0.772-0.894,1.245
					c-0.108,0.011-0.206,0.086-0.224,0.229c-0.138,1.253-0.571,2.434-0.738,3.676c-0.191,1.438-0.218,3.032-0.225,4.48
					c-0.013,2.673-0.136,5.363-0.14,8.049c0,2.859-0.004,5.718-0.004,8.579c-0.005,2.515,0.499,5.026,0.813,7.508
					c0.692,5.517,1.513,11.021,2.151,16.539c0.328,2.825,1.183,5.713,1.905,8.461c0.686,2.609,1.144,5.312,2.689,7.573
					c0.218,0.322,0.591,0.317,0.836,0.143c1.231,0.146,2.461,0.171,3.701,0.081c0.362-0.03,0.52-0.359,0.473-0.637
					c0.019-0.079,0.028-0.161,0.014-0.241c-0.453-2.807-0.978-5.592-1.388-8.403C200.759,329.704,200.468,326.844,199.997,324.019z"
					/>
			</g>
			<g>
				<path fill="#F4D9BF" d="M226.081,281.142c-0.009-0.283-0.019-0.567-0.026-0.851c0.283-0.929,0.457-1.949,0.234-2.845
					c-0.254-1.002-1.4-1.635-2.313-1.87c-1.387-0.355-3.963,0.723-3.664,2.437c-0.093,0.021-0.168,0.087-0.156,0.202
					c0.063,0.909-0.24,2.111-0.317,3.03c-0.015,0.239-0.034,0.478-0.055,0.717C221.874,281.612,223.973,281.338,226.081,281.142z"/>
				<path fill="#F4D9BF" d="M196.805,281.929c0.109-1.592,0.303-3.262,0.316-4.878c0.247-0.58,0.18-1.258-0.099-1.851
					c-0.009-0.104-0.018-0.217-0.034-0.316c-0.011-0.091-0.116-0.117-0.189-0.085c-0.422-0.629-1.09-1.084-1.824-1.087
					c-1.172-0.012-2.162,0.627-2.776,1.542c-0.392,0.344-0.694,0.772-0.894,1.245c-0.108,0.011-0.206,0.086-0.224,0.229
					c-0.138,1.253-0.571,2.434-0.738,3.676c-0.038,0.272-0.059,0.551-0.087,0.829C192.458,281.313,194.644,281.542,196.805,281.929z
					"/>
			</g>
			<g>
				<path fill="#B4E3F7" d="M236.397,335.049c-0.813-2.327-1.747-4.676-2.257-7.093c-1.993,0.031-3.981-0.031-5.927-0.406
					c0.69,2.326,1.338,4.699,2.146,6.986c0.847,2.394,2.088,4.59,3.382,6.762c0.082,0.139,0.216,0.192,0.349,0.192
					c0.096,0.105,0.23,0.195,0.396,0.27c0.327,0.137,0.768,0.104,1.119,0.175c0.451,0.094,0.888,0.14,1.348,0.204
					c0.552,0.073,1.181,0.234,1.625-0.173c0.013-0.01,0.016-0.022,0.026-0.031c0.124-0.091,0.205-0.224,0.185-0.406
					c-0.104-0.901-0.463-1.619-0.845-2.434C237.334,337.783,236.877,336.412,236.397,335.049z"/>
				<path fill="#B4E3F7" d="M236.818,336.246c-0.678,0.385-1.405,0.628-2.132,0.513c-0.753-0.121-1.219-0.392-1.71-0.97
					c-0.803-0.954-1.602-1.433-2.697-1.498c0.026,0.085,0.055,0.164,0.08,0.245c0.847,2.394,2.088,4.59,3.382,6.762
					c0.082,0.139,0.216,0.192,0.349,0.192c0.096,0.105,0.23,0.195,0.396,0.27c0.327,0.137,0.768,0.104,1.119,0.175
					c0.451,0.094,0.888,0.14,1.348,0.204c0.552,0.073,1.181,0.234,1.625-0.173c0.013-0.01,0.016-0.022,0.026-0.031
					c0.124-0.091,0.205-0.224,0.185-0.406c-0.104-0.901-0.463-1.619-0.845-2.434C237.513,338.165,237.158,337.21,236.818,336.246z"
					/>
				<path fill="#B4E3F7" d="M200.748,329.39c-0.829,0.014-1.656-0.013-2.478-0.092c-1.519-0.148-3.235-0.356-4.828-0.814
					c0.4,1.872,0.93,3.737,1.402,5.536c0.686,2.609,1.144,5.312,2.689,7.573c0.218,0.322,0.591,0.317,0.836,0.143
					c1.231,0.146,2.461,0.171,3.701,0.081c0.362-0.03,0.52-0.359,0.473-0.637c0.019-0.079,0.028-0.161,0.014-0.241
					c-0.453-2.807-0.978-5.592-1.388-8.403C201.019,331.491,200.881,330.439,200.748,329.39z"/>
				<path fill="#B4E3F7" d="M200.566,338.101c-0.672-0.059-1.169-0.271-1.705-0.703c-0.816-0.659-1.548-1.221-2.662-1.149
					c-0.268,0.016-0.525,0.033-0.785,0.046c0.473,1.858,1.019,3.69,2.12,5.299c0.218,0.322,0.591,0.317,0.836,0.143
					c1.231,0.146,2.461,0.171,3.701,0.081c0.362-0.03,0.52-0.359,0.473-0.637c0.019-0.079,0.028-0.161,0.014-0.241
					c-0.176-1.078-0.359-2.16-0.544-3.235C201.573,337.98,201.096,338.147,200.566,338.101z"/>
			</g>
			<g>
				<g>
					<path fill="#79D2F7" d="M167.834,140.896c0.345-0.095,0.66-0.237,0.958-0.407c0.362-0.254,0.717-0.52,1.065-0.795
						c1.185-1.088,2.132-2.561,3.516-3.376c0.459-0.522,0.9-1.058,1.326-1.605c-0.622-0.251-1.404-0.382-1.975-0.417
						c-1.475-0.095-2.831,0.043-4.252,0.45c-2.123,0.605-5.193,1.867-5.49,4.386C162.691,141.587,166.482,141.269,167.834,140.896z"
						/>
					<path fill="#79D2F7" d="M161.415,132.604c-0.475,0.419-0.752,0.96-0.724,1.686c0.038,0.904,1.31,0.64,1.828,0.474
						c0.545-0.177,1.022-0.51,1.519-0.785c0.57-0.308,1.149-0.428,1.752-0.54C164.323,133.057,162.874,132.555,161.415,132.604z"/>
					<path fill="#79D2F7" d="M169.996,123.541c-1.876-1.053-4.76-1.709-6.228,0.167c-1.629,2.086,1.691,4.19,3.345,4.73
						c1.623,0.536,3.339,0.709,4.96,1.244c1.106,0.365,1.999,0.845,2.839,1.483C173.69,128.338,172.107,125.722,169.996,123.541z"/>
				</g>
			</g>
			<g>
				<path fill="#F4D9BF" d="M267.052,262.104c-1.021-2.216-2.907-3.25-4.411-5.042c-0.1-0.12-0.188-0.244-0.282-0.372
					c-1.171-2.58-1.297-5.738-1.883-8.479c-0.953-4.449-1.774-8.901-2.841-13.329c-1.01-4.183-2.119-8.289-3.55-12.353
					c-1.226-3.48-2.495-7.429-5.065-10.208v-0.001c0.11-0.359-0.342-0.593-0.602-0.354c-0.659,0.604-1.71,0.955-2.486,1.385
					c-0.457,0.254-0.825,0.679-1.257,0.966c-0.349,0.236-0.776,0.333-1.137,0.551c-0.229,0.14-0.291,0.357-0.249,0.558
					c-0.096,0.03-0.167,0.174-0.072,0.259c1.262,1.16,1.912,3.387,2.558,4.896c0.772,1.8,1.363,3.747,1.87,5.637
					c1.137,4.193,2.769,8.408,3.297,12.737c0.459,3.768,1.077,7.582,1.75,11.32c0.41,2.264,0.92,4.505,1.176,6.789
					c0.093,0.808,0.022,1.602-0.109,2.393c-0.536,0.72-0.926,1.599-1.229,2.325c-0.742,1.773-1.489,4.225-1.164,6.193
					c0.103,0.625,0.3,1.611,1.064,1.802c0.518,0.135,1.08,0.093,1.395-0.425c0.494-0.816,0.621-1.907,0.735-2.836
					c0.154-1.26,0.776-1.736,1.573-2.057c0.525,0.672,1.051,1.338,1.449,2.116c0.999,1.921,1.41,3.568,1.453,5.714
					c0.029,1.637-0.143,3.247,0.004,4.887c0.045,0.521,0.037,1.852,0.627,2.128c1.477,0.688,2.14-1.565,2.393-2.998
					c1.019,0.216,1.861-1.268,2.32-2.429c1.169-0.044,1.861-0.691,2.239-1.655C270.669,271.112,268.21,264.611,267.052,262.104z"/>
				<path fill="#F4D9BF" d="M250.563,216.533c0.34-0.133,0.677-0.248,1.014-0.375c-0.697-1.396-1.518-2.714-2.557-3.837v-0.001
					c0.11-0.359-0.342-0.593-0.602-0.354c-0.659,0.604-1.71,0.955-2.486,1.385c-0.457,0.254-0.825,0.679-1.257,0.966
					c-0.349,0.236-0.776,0.333-1.137,0.551c-0.229,0.14-0.291,0.357-0.249,0.558c-0.096,0.03-0.167,0.174-0.072,0.259
					c0.87,0.8,1.443,2.107,1.935,3.334C246.757,217.893,248.811,217.204,250.563,216.533z"/>
				<path fill="#C39368" d="M261.955,273.502c-0.007-1.711-0.279-3.67-0.967-5.249c-0.016-0.036-0.063-0.01-0.056,0.021
					c0.604,3.233,1.202,7.28,0.102,10.473c-0.037,0.104,0.111,0.161,0.167,0.074C262.215,277.347,261.955,275.196,261.955,273.502z"
					/>
				<path fill="#C39368" d="M264.088,265.703c-0.09-0.128-0.289-0.055-0.252,0.098c0.324,1.314,0.906,2.398,0.97,3.796
					c0.074,1.611-0.136,3.208-0.853,4.674c-0.035,0.068,0.061,0.158,0.123,0.092c0.849-0.962,0.984-2.443,1.035-3.674
					C265.18,268.95,265.12,267.188,264.088,265.703z"/>
				<path fill="#C39368" d="M266.408,264.686c-0.063-0.089-0.202-0.011-0.146,0.09c0.641,1.117,0.99,2.2,1.065,3.495
					c0.083,1.332-0.46,2.407-0.768,3.653c-0.041,0.164,0.194,0.271,0.281,0.119C268.063,269.847,267.806,266.735,266.408,264.686z"
					/>
			</g>
			<g>
				<path fill="#3A4131" d="M190.4,249.362c0,0-7.94,28.176-7.299,29.073l24.207,2.817c0,0,4.867-13.45,4.867-13.065
					c0,0.386,0.896,13.065,0.896,13.065s23.824-2.434,24.719-3.585c0.895-1.152-0.515-24.467-0.515-24.467L190.4,249.362z"/>
				<path fill="#293021" d="M233.096,271.791c-0.133-6.326-0.352-12.637-0.373-18.961l-10.263-0.84
					c0.689,2.855,1.896,5.748,4.395,7.317c2.003,1.259,4.513,1.35,4.839,4.117c0.593,5.096,0.764,10.275,0.829,15.454
					c0.267-0.043,0.524-0.084,0.779-0.122C233.203,276.431,233.146,274.111,233.096,271.791z"/>
				<path opacity="0.4" fill="#3A4131" d="M237.276,253.201l-46.876-3.839c0,0-0.404,1.441-1.024,3.681
					c-0.104,0.382,3.333,1.885,3.707,2.044c5.331,2.283,11.115,3.684,16.835,4.556c4.646,0.703,9.391-0.216,14.002,0.556
					c3.091,0.517,5.669,2.206,6.388,5.391c0.608,2.674,1.052,5.662,0.909,8.407c-0.096,1.815-0.454,3.727-1.432,5.283
					c4.225-0.588,7.675-1.185,8.006-1.611C238.686,276.516,237.276,253.201,237.276,253.201z"/>
				<path opacity="0.4" fill="#3A4131" d="M212.107,268.172c-0.002-0.013-0.002-0.027-0.011-0.042
					c-4.083,3.815-7.507,8.495-11.563,12.334l6.774,0.789c0,0,4.266-11.781,4.81-12.972
					C212.114,268.246,212.113,268.211,212.107,268.172z"/>
				<path fill="#646EB3" d="M185.151,185.487c0,0,2.239,12.448,1.919,15.961l9.895-0.315c0,0-11.97,31.118-11.651,48.992
					c0,0,22.663,13.564,54.741,4.947c0,0,0-34.154-0.958-42.449l3.194,5.902c0,0,12.548-5.509,14.781-5.669
					c0,0-9.217-34.349-37.924-30.081L185.151,185.487z"/>
				<path opacity="0.5" fill="#646EB3" d="M196.847,201.771c0.995-2.454,2.077-4.74,3.478-6.962
					c-3.452,0.487-6.961,0.672-10.379,1.307c-1.039,0.193-2.077,0.409-3.119,0.601c0.216,1.975,0.336,3.723,0.244,4.731l9.895-0.315
					c0,0-0.364,0.947-0.963,2.603C196.29,203.083,196.578,202.433,196.847,201.771z"/>
				<path opacity="0.5" fill="#646EB3" d="M257.072,212.856c0,0-3.402-12.662-12.5-21.654c0.379,0.431,0.752,0.871,1.108,1.329
					c2.772,3.543,4.582,7.406,6.768,11.285c1.382,2.45,2.315,4.442,2.466,7.245c0.012,0.229-0.16,0.382-0.352,0.46
					c-2.594,1.062-5.465,1.596-7.993,2.813c-1.854,0.892-3.789,1.544-4.914-0.712c-2.467-4.947-5.345-9.553-8.452-14.063
					c0.894,9.206-0.328,18.868-0.588,27.828c-0.222,7.706-0.609,15.427-0.617,23.136c-0.002,2.038,0.058,4.16,0.025,6.289
					c2.604-0.437,5.279-1.002,8.031-1.74c0,0,0-34.154-0.958-42.449l3.194,5.902C242.291,218.525,254.839,213.017,257.072,212.856z"
					/>
				<path opacity="0.5" fill="#646EB3" d="M214.363,197.196c4.901-0.155,7.481-3.707,8.354-8.226
					c0.38-1.962,0.988-4.304,1.112-6.556c-1.501,0.008-3.059,0.12-4.682,0.361l-13.822,1.103
					C204.519,189.902,207.584,197.41,214.363,197.196z"/>
				<path fill="#68307A" d="M221.401,181.625c-1.517-1.384-4.062-2.01-6.074-2.039c-2.361-0.034-4.766,0.466-6.727,1.84
					c-1.899,1.329-1.97,2.479-1.637,4.631c0.309,1.986,0.375,4.031,1.367,5.833c1.444,2.608,4.503,4.417,7.48,3.375
					c3.605-1.26,4.84-4.291,5.698-7.715C221.923,185.884,222.938,183.026,221.401,181.625z"/>
				<path fill="#EFCAA6" d="M218.927,181.094c-0.719-1.051-2.566-1.132-3.694-1.094c-1.265,0.038-2.828,0.07-3.993,0.605
					c-1.206,0.563-1.392,1.474-1.796,2.622c-0.443,1.243-0.316,3.043-0.122,4.311c0.242,1.567,0.736,2.937,1.71,4.198
					c1.449,1.869,3.819,1.316,5.449,0.077c2.087-1.338,2.893-4.208,3.098-6.529C219.701,183.847,219.773,182.328,218.927,181.094z"
					/>
			</g>
			<g>
				<g>
					<path fill="#F4D9BF" d="M258.655,151.14c-0.883-2-2.112-3.158-4.32-3.473c-1.444-0.206-2.732,0.346-3.862,1.142
						c-1.084-0.377-3.217-0.841-3.716-1.621c-0.562-0.88,1.199-6.386,2.315-14.604c1.115-8.219,2.713-14.445,2.713-14.445
						l-5.105,5.989l-0.238-6.229c-1.601,1.437-4.311,6.783-4.311,6.783c-4.788-3.27-25.775-7.659-25.775-7.659
						c-0.237-2.074,2.392-7.901,2.392-7.901c-3.271,2.718-5.744,8.778-5.744,8.778s-2.314-1.115-10.691-1.354
						c-8.379-0.239-17.476-1.914-17.476-1.914s-2.236,15.318-4.947,24.418c-2.712,9.097-6.066,18.511-3.832,23.142
						c2.234,4.629,10.535,13.722,22.183,19.15c11.649,5.425,29.047,1.115,41.494-10.537c0,0,1.278-1.432,5.347-8.375
						c0.775-1.32,0.979,1.116,5.887,0.278c1.817-0.31,6.346-4.142,7.067-5.913C258.729,155.102,259.446,152.928,258.655,151.14z"/>
					<path opacity="0.5" fill="#EFCAA6" d="M198.533,148.676c-0.602-0.31-1.557-0.843-2.236-1.515
						c0.33,1.825,1.284,3.721,2.466,4.783c3.006,2.704,5.379-1.452,5.725-4.368C202.832,148.775,200.378,149.624,198.533,148.676z"
						/>
					<path opacity="0.5" fill="#EFCAA6" d="M258.655,151.14c-0.883-2-2.112-3.158-4.32-3.473c-1.444-0.206-2.732,0.346-3.862,1.142
						c-1.084-0.377-3.217-0.841-3.716-1.621c-0.562-0.88,1.199-6.386,2.315-14.604c1.115-8.219,2.713-14.445,2.713-14.445
						l-5.105,5.989l-0.238-6.229c-1.601,1.437-4.311,6.783-4.311,6.783c-4.788-3.27-25.775-7.659-25.775-7.659
						c-0.237-2.074,2.392-7.901,2.392-7.901c-3.271,2.718-5.744,8.778-5.744,8.778s-2.314-1.115-10.691-1.354
						c-8.379-0.239-17.476-1.914-17.476-1.914s-0.257,1.759-0.701,4.434c9.819,0.193,19.629,0.838,29.354,2.252
						c6.725,0.978,13.533,2.146,20.094,3.942c2.133,0.583,5.378,1.186,7.027,2.804c1.095,1.074,1.246,2.522,1.472,3.96
						c1.421-2.088,1.706-4.759,3.191-6.837c0.169-0.236,0.579-0.242,0.656,0.085c0.4,1.701,0.181,3.462-0.121,5.163
						c-0.422,2.379-0.861,4.729-1.168,7.129c-1.126,8.817-2.967,17.894-7.851,25.489c-4.691,7.293-11.898,12.33-20.425,14.083
						c-8.996,1.85-18.65,0.735-26.779-3.643c-4.205-2.265-8.028-5.179-11.032-8.915c-1.22-1.517-2.234-3.204-3.148-4.931
						c0.099,0.95,0.299,1.813,0.652,2.544c2.234,4.629,10.535,13.722,22.183,19.15c11.649,5.425,29.047,1.115,41.494-10.537
						c0,0,1.278-1.432,5.347-8.375c0.775-1.32,0.979,1.116,5.887,0.278c1.817-0.31,6.346-4.142,7.067-5.913
						C258.729,155.102,259.446,152.928,258.655,151.14z"/>
					<g>
						<path fill="#A95A16" d="M223.807,128.183c-0.655-0.642-1.568-0.761-2.455-0.687c-0.8,0.065-1.579,0.101-2.138,0.722
							c-0.287,0.321-0.319,0.945,0.138,1.153c0.483,0.222,1.013,0.298,1.541,0.356c0.712,0.083,1.409,0.28,2.125,0.329
							C223.982,130.116,224.474,128.826,223.807,128.183z"/>
						<path fill="#A95A16" d="M189.621,125.905c-0.646-0.488-1.318-0.516-2.09-0.454c-0.75,0.057-1.467,0.114-2.081,0.586
							c-0.45,0.343-0.206,0.971,0.151,1.243c0.474,0.366,1.096,0.369,1.671,0.441c0.581,0.068,1.209,0.208,1.784,0.205
							C190.214,127.915,190.442,126.528,189.621,125.905z"/>
						<g>
							<path fill="#F3967C" d="M221.304,170.291c0.002-0.222-0.002-0.439-0.023-0.655c-0.315-3.03-2.684-5.508-5.155-7.081
								c-5.545-3.531-13.393-3.922-19.349-1.226c-3.698,1.672-7.198,5.283-7.042,9.522c0.182,4.838,4.502,4.473,8.042,3.449
								c3.114-0.898,6.253-2.507,9.571-2.207c3.422,0.316,5.775,3.487,9.212,3.509C219.412,175.621,221.245,172.834,221.304,170.291
								z"/>
							<path fill="#EE6A5B" d="M219.913,166.099c-0.034,0.003-0.065,0.012-0.104,0.006c-5.763-0.857-12.445,1.876-16.59,6.436
								c1.352-0.358,2.724-0.575,4.128-0.447c3.422,0.316,5.775,3.487,9.212,3.509c2.853,0.02,4.686-2.768,4.744-5.311
								c0.002-0.222-0.002-0.439-0.023-0.655C221.146,168.348,220.639,167.159,219.913,166.099z"/>
							<path fill="#FFFFFF" d="M198.227,162.471c1.83,2.323,5.249,2.247,7.911,2.22c2.268-0.021,5.306,0.176,7.169-1.326
								c0.582-0.471,1.095-0.988,1.582-1.519c-5.199-2.735-11.957-2.988-17.374-0.822
								C197.682,161.558,197.9,162.057,198.227,162.471z"/>
						</g>
					</g>
				</g>
			</g>
			<g>
				<path fill="#1E5364" d="M215.527,355.273c2.162,0.191,4.286-0.31,6.337-0.942c0.604-0.183,1.212-0.363,1.826-0.543
					c0.064-0.026,0.13-0.048,0.197-0.075c3.12-1.245,6.177-2.61,9.208-4.056c1.586-0.76,3.167-1.533,4.657-2.46
					c0.366-0.266,0.737-0.525,1.12-0.766c0.045-0.029,0.086-0.054,0.129-0.085c0.392-0.286,0.777-0.584,1.146-0.899l0.002-0.002
					c0.82-0.835,1.064-1.791,0.733-3.342c-0.345-1.597-1.015-4.249-2.756-4.888c-0.696-0.256-1.219-0.35-1.849,0.069
					c-1.646,1.097-2.553,1.087-3.557-0.561c-0.864-1.408-1.616-2.342-3.375-1.854c-0.976,0.273-1.659,0.99-2.084,1.861
					c-0.233,0.329-0.439,0.687-0.637,1.014c-0.659,1.094-1.876,1.729-2.879,2.45c-1.024,0.743-2.089,1.457-3.17,2.114
					c-0.953,0.577-1.878,1.206-2.85,1.754c-1.044,0.587-2.147,1.025-3.197,1.585c-1.722,0.927-3.385,2.097-4.324,3.859
					c-0.67,1.248-0.188,3.121,0.744,4.104C212.234,354.964,213.743,355.11,215.527,355.273z"/>
				<path fill="#1E5364" d="M204.886,344.241c-0.008-1.597,0.056-3.424-0.423-4.961c-0.224-0.726-1.052-1.483-1.879-1.265
					c-0.768,0.204-1.177,1.282-2.005,1.297c-0.329,0.004-0.685-0.053-1.044-0.123c-1.006-1.755-3.204-2.927-5.196-2.39
					c-1.122,0.298-1.905,0.978-2.7,1.694c-0.563,0.315-1.128,0.63-1.693,0.924c-1.55,0.8-3.193,1.742-4.872,2.216
					c-1.602,0.458-3.179,0.991-4.783,1.447c-1.926,0.549-3.89,0.847-5.804,1.452c-2.389,0.757-4.217,2.535-4.655,5.002
					c-0.453,2.579,1.574,4.034,3.794,4.628c4.828,1.294,11.358-0.181,17.489-1.791c2.641-0.69,7.737-2.104,10.317-3.084
					C204.239,348.222,204.901,346.907,204.886,344.241z"/>
			</g>
			<g>
				<path fill="#009CB3" d="M222.054,354.276c0.152-1.848,0.002-3.731-0.681-5.415c-0.672-1.653-1.84-3.257-3.645-3.767
					c-0.577-0.162-1.131-0.188-1.684-0.187c-0.509,0.241-1.02,0.479-1.514,0.741c-1.722,0.927-3.385,2.097-4.324,3.859
					c-0.67,1.248-0.188,3.121,0.744,4.104c1.283,1.351,2.792,1.497,4.576,1.66c2.162,0.191,4.286-0.31,6.337-0.942
					C221.927,354.313,221.988,354.295,222.054,354.276z"/>
				<path fill="#009CB3" d="M180.294,346.5c-1.132-1.127-2.296-1.92-3.715-2.525c-0.7,0.166-1.399,0.341-2.093,0.559
					c-2.389,0.757-4.217,2.535-4.655,5.002c-0.453,2.579,1.574,4.034,3.794,4.628c2.62,0.704,5.737,0.587,9.022,0.08
					C183.008,351.458,182.442,348.638,180.294,346.5z"/>
			</g>
			<g>
				<path fill="#154453" d="M234.703,346.92c-3.133,1.605-6.406,3.079-9.688,4.365c-3.94,1.54-8.132,2.931-12.385,3.179
					c-0.184,0.01-0.362,0.017-0.546,0.024c1.02,0.553,2.156,0.668,3.442,0.785c2.162,0.191,4.286-0.31,6.337-0.942
					c0.604-0.183,1.212-0.363,1.826-0.543c0.064-0.026,0.13-0.048,0.197-0.075c3.12-1.245,6.177-2.61,9.208-4.056
					c1.586-0.76,3.167-1.533,4.657-2.46c0.366-0.266,0.737-0.525,1.12-0.766c0.045-0.029,0.086-0.054,0.129-0.085
					c0.392-0.286,0.777-0.584,1.146-0.899l0.002-0.002c0.813-0.827,1.061-1.771,0.742-3.297
					C239.416,344.27,236.93,345.777,234.703,346.92z"/>
				<path fill="#154453" d="M200.105,348.162c-3.568,1.207-7.288,2.061-10.908,3.119c-4.124,1.204-8.415,2.349-12.744,2.257
					c-1.937-0.038-3.799-0.325-5.598-0.815c0.724,0.688,1.721,1.159,2.77,1.44c4.828,1.294,11.358-0.181,17.489-1.791
					c2.641-0.69,7.737-2.104,10.317-3.084c2.253-0.854,3.12-1.871,3.37-3.614C203.449,346.797,201.797,347.588,200.105,348.162z"/>
			</g>
			<g>
				<path fill="#D29B7D" d="M273.215,306.768c-1.409-4.05-4.051-7.678-5.62-11.705c-2.606-6.69-3.994-13.885-3.968-21.083
					c0.016-3.569-0.32-7.134-2.382-10.18c-0.609-0.901-1.886-2.176-3.05-2.211c-1.793-0.061-2.887,2.127-3.682,3.428
					c-4.468,7.31-4.154,17.179-3.373,25.401c0.795,8.428,3.213,16.717,8.898,23.155c3.433,3.896,7.318,5.461,11.716,1.883
					C274.009,313.615,274.074,309.244,273.215,306.768z"/>
				<path opacity="0.4" fill="#D29B7D" d="M273.215,306.768c-1.409-4.05-4.051-7.678-5.62-11.705
					c-2.606-6.69-3.994-13.885-3.968-21.083c0.016-3.569-0.32-7.134-2.382-10.18c-0.609-0.901-1.886-2.176-3.05-2.211
					c-1.793-0.061-2.887,2.127-3.682,3.428c-2.146,3.513-3.183,7.617-3.6,11.844c0.417-1.26,0.899-2.496,1.426-3.693
					c1.377-3.132,2.933-6.976,6.552-7.996c0.282-0.079,0.488,0.181,0.441,0.441c-1.716,9.515-0.907,19.363,1.958,28.581
					c0.729,2.344,1.796,4.485,2.66,6.765c0.246,0.648,1.088,2.26,0.625,3.009c-0.807,1.3-2.123,2.426-3.167,3.534
					c-1.128,1.196-2.245,2.395-3.291,3.654c0.596,0.831,1.233,1.638,1.921,2.418c3.433,3.896,7.318,5.461,11.716,1.883
					C274.009,313.615,274.074,309.244,273.215,306.768z"/>
				<path fill="#D29B7D" d="M308.773,373.777c-0.038-0.301-0.085-0.604-0.138-0.893c-1.495-8.496-7.021-15.819-9.65-23.976
					c-0.747-2.319-0.697-5.378-1.819-7.513c-0.781-1.487-2.416-1.664-3.959-1.713c-1.354-0.04-2.642,0.812-3.55,1.745
					c-1.779,1.838-1.422,4.892-1.681,7.224c-0.922,8.295,0.666,16.465,3.461,24.264c1.226,3.422,2.501,7.316,5.153,9.923
					c2.188,2.152,5.874,2.858,8.548,1.325C308.722,382.113,309.244,377.487,308.773,373.777z"/>
				<path opacity="0.4" fill="#D29B7D" d="M288.756,355.031c0.736-1.873,2.818-4.556,5.172-3.989
					c3.131,0.753,6.884,14.465,8.874,18.089c1.469,2.673,3.116,5.393,3.928,8.358c0.479,1.751,0.651,3.519,0.191,5.175
					c1.964-2.352,2.23-5.912,1.853-8.887c-0.038-0.301-0.085-0.604-0.138-0.893c-1.495-8.496-7.021-15.819-9.65-23.976
					c-0.747-2.319-0.697-5.378-1.819-7.513c-0.781-1.487-2.416-1.664-3.959-1.713c-1.354-0.04-2.642,0.812-3.55,1.745
					c-1.779,1.838-1.422,4.892-1.681,7.224c-0.349,3.128-0.338,6.236-0.042,9.314C288.114,356.976,288.377,355.995,288.756,355.031z
					"/>
				<path fill="#D29B7D" d="M337.972,347.271c-2.316-2.509-4.8-4.871-7.308-7.182c-2.271-2.098-4.637-4.251-7.357-5.744
					c-1.075-0.585-1.768-1.128-3.014-1.11c-0.872,0.007-1.933,0.151-2.654,0.668c-0.88,0.634-0.226,2.683,0.487,4.159
					c0.005,3.824,0.904,7.681,2.209,11.231c1.796,4.901,4.058,9.795,7.147,14.019c2.453,3.354,6.165,6.438,10.395,6.996
					c1.653,0.22,3.254-0.701,4.593-1.681c1.982-1.146,3.302-3.517,3.509-5.683C346.546,357.008,341.689,351.303,337.972,347.271z"/>
				<path opacity="0.4" fill="#D29B7D" d="M337.972,347.271c-2.316-2.509-4.8-4.871-7.308-7.182
					c-2.271-2.098-4.637-4.251-7.357-5.744c-1.075-0.585-1.768-1.128-3.014-1.11c-0.872,0.007-1.933,0.151-2.654,0.668
					c-0.88,0.634-0.226,2.683,0.487,4.159c0.005,3.824,0.904,7.681,2.209,11.231c0.034,0.093,0.071,0.185,0.105,0.277
					c-0.011-0.221-0.022-0.444-0.021-0.666c0.022-2.173,0.524-4.64,2.351-6.051c5.574-4.309,11.169,3.12,14.294,7.045
					c2.224,2.791,4.455,5.791,5.81,9.117c1.032,2.536,2.238,5.652,1.061,8.356c-0.023,0.056-0.055,0.102-0.081,0.156
					c1.2-1.25,1.973-2.972,2.126-4.584C346.546,357.008,341.689,351.303,337.972,347.271z"/>
				<path fill="#D29B7D" d="M351.147,304.938c-0.541-0.74-1.238-1.409-2.109-1.97c-1.924-1.243-4.395-1.642-6.634-1.813
					c-4.775-0.371-9.532,0.992-13.938,2.717c-5.947,2.331-12.563,4.995-17.484,9.161c-1.021,0.861-1.738,2.102-1.121,3.425
					c0.852,1.817,2.212,2.639,4.089,3.159c3.146,0.872,6.697-0.037,9.938,0.212c3.555,0.271,7.067,0.987,10.638,0.98
					c5.171-0.006,11.105-0.861,15.04-4.545C352.813,313.226,353.639,308.333,351.147,304.938z"/>
				<path opacity="0.4" fill="#D29B7D" d="M351.147,304.938c-0.101-0.138-0.212-0.27-0.322-0.401c0.16,1.378,0,2.76-0.899,3.858
					c-1.949,2.379-5.633,2.785-8.461,3.21c-3.936,0.592-8.486,0.712-12.312-0.569c-1.857-0.621-3.564-1.524-5.294-2.434
					c-0.965-0.508-1.982-1.128-3.049-1.527c-3.538,1.636-6.971,3.538-9.828,5.958c-1.021,0.861-1.738,2.102-1.121,3.425
					c0.852,1.817,2.212,2.639,4.089,3.159c3.146,0.872,6.697-0.037,9.938,0.212c3.555,0.271,7.067,0.987,10.638,0.98
					c5.171-0.006,11.105-0.861,15.04-4.545C352.813,313.226,353.639,308.333,351.147,304.938z"/>
				<path fill="#D1815F" d="M326.748,317.658c-1.1-3.393-2.959-6.475-5.747-9.054c-1.645-1.522-3.627-3.052-5.63-4.075
					c-3.032-1.549-6.395-2.536-9.796-2.761c-2.635-0.173-5.513-0.082-8.114,0.406c-2.363,0.443-4.747,1.063-6.938,2.097
					c-0.936,0.445-1.836,0.967-2.688,1.558c-0.681,0.474-1.844,2.013-2.567,2.198c-0.091,0.023-0.182,0.041-0.272,0.064
					c-1.277,0.355-2.354,2.279-2.692,3.435c-0.466,1.603,0.782,2.759,1.508,3.99c0.541,0.921,0.581,2.262,0.759,3.291
					c0.222,1.302,0.618,2.584,0.883,3.884c0.841,4.129,2.175,7.97,3.936,11.785c0.937,2.041,2.165,3.848,3.372,5.727
					c1.059,1.641,2.384,3.198,3.96,4.366c1.509,1.116,3.095,1.813,4.969,2.05c2.155,0.276,4.706,0.491,6.853,0.112
					c7.968-1.418,15.83-6.097,18.352-14.22c0.672-2.166,1.152-4.743,1.108-7.02C327.947,322.774,327.551,320.134,326.748,317.658z"
					/>
				<path opacity="0.5" fill="#D29B7D" d="M326.748,317.658c-1.1-3.393-2.959-6.475-5.747-9.054
					c-1.527-1.416-3.347-2.828-5.204-3.843c6.59,5.427,11.321,13.376,9.364,22.182c-1.088,4.896-4.137,9.23-8.349,11.955
					c-4.252,2.75-10.193,5.225-15.313,4.042c-0.193-0.044-0.298-0.258-0.251-0.44c1.119-4.369,1.811-8.989,0.335-13.373
					c-1.352-4.016-3.605-7.737-6.384-10.928c-2.66-3.056-5.802-5.719-9.438-7.547c-0.827-0.416-1.673-0.75-2.528-1.044
					c-0.438,0.646-0.77,1.368-0.931,1.918c-0.466,1.603,0.782,2.759,1.508,3.99c0.541,0.921,0.581,2.262,0.759,3.291
					c0.222,1.302,0.618,2.584,0.883,3.884c0.841,4.129,2.175,7.97,3.936,11.785c0.937,2.041,2.165,3.848,3.372,5.727
					c1.059,1.641,2.384,3.198,3.96,4.366c1.509,1.116,3.095,1.813,4.969,2.05c2.155,0.276,4.706,0.491,6.853,0.112
					c7.968-1.418,15.83-6.097,18.352-14.22c0.672-2.166,1.152-4.743,1.108-7.02C327.947,322.774,327.551,320.134,326.748,317.658z"
					/>
				<path fill="#D1815F" d="M257.184,309.426c-3.805-1.826-8.889-0.505-11.718,2.441c-3.124,3.247-1.906,7.859,0.909,10.777
					c1.309,1.363,3.42,1.974,5.219,2.304c0.679,0.132,2.291,0.267,3.305-0.092c0.087,0.036,0.178,0.061,0.29,0.046
					c0.888-0.12,1.549-0.676,2.282-1.156c0.576-0.38,1.121-0.771,1.52-1.351c0.4-0.595,0.709-1.238,0.887-1.915
					C261.272,316.854,261.134,311.331,257.184,309.426z"/>
				<path opacity="0.5" fill="#D29B7D" d="M257.184,309.426c-1.187-0.569-2.496-0.832-3.822-0.836
					c0.768,0.431,1.355,1.144,1.615,2.315c0.142,0.639-0.282,1.273-0.929,1.38c-1.313,0.217-2.623-0.096-3.817,0.707
					c-2.257,1.514-2.91,4.479-1.744,6.9c0.248,0.513,1.471,2.188,0.448,2.695c-1.008,0.502-1.943,0.336-2.758-0.162
					c0.066,0.071,0.129,0.147,0.198,0.219c1.309,1.363,3.42,1.974,5.219,2.304c0.679,0.132,2.291,0.267,3.305-0.092
					c0.087,0.036,0.178,0.061,0.29,0.046c0.888-0.12,1.549-0.676,2.282-1.156c0.576-0.38,1.121-0.771,1.52-1.351
					c0.4-0.595,0.709-1.238,0.887-1.915C261.272,316.854,261.134,311.331,257.184,309.426z"/>
				<path fill="#D1815F" d="M277.26,348.565c0.004-0.058-0.005-0.114-0.025-0.177c-0.329-0.874-1.084-1.135-1.86-1.595
					c-1.082-0.627-2.066-1.238-3.26-1.64c-2.178-0.735-4.33-0.788-6.425-0.053c-0.037-0.031-0.084-0.043-0.146-0.031
					c-4.413,0.951-4.82,5.352-4.238,9.188c0.528,3.528,3.188,8.18,7.157,8.589c4.501,0.457,8.333-1.006,10.559-5.093
					C280.766,354.551,280.087,350.559,277.26,348.565z"/>
				<path fill="#D1815F" d="M277.26,348.565c0.004-0.058-0.005-0.114-0.025-0.177c-0.329-0.874-1.084-1.135-1.86-1.595
					c-1.082-0.627-2.066-1.238-3.26-1.64c-2.178-0.735-4.33-0.788-6.425-0.053c-0.037-0.031-0.084-0.043-0.146-0.031
					c-4.413,0.951-4.82,5.352-4.238,9.188c0.528,3.528,3.188,8.18,7.157,8.589c4.501,0.457,8.333-1.006,10.559-5.093
					C280.766,354.551,280.087,350.559,277.26,348.565z"/>
				<path opacity="0.5" fill="#D29B7D" d="M277.26,348.565c0.004-0.058-0.005-0.114-0.025-0.177
					c-0.329-0.874-1.084-1.135-1.86-1.595c-1.082-0.627-2.066-1.238-3.26-1.64c-2.178-0.735-4.33-0.788-6.425-0.053
					c-0.037-0.031-0.084-0.043-0.146-0.031c-4.266,0.92-4.784,5.059-4.291,8.799c0.025-0.073,0.051-0.147,0.076-0.216
					c0.475-1.274,2.103-3.547,3.31-1.529c0.326,0.544,0.31,1.315,0.498,1.914c0.469,1.485,1.275,2.842,2.888,3.281
					c1.234,0.335,2.528,0.412,3.795,0.188c0.866-0.151,1.695-0.534,2.563-0.651c2.007-0.271,2.846,1.307,3.142,3.012
					c0.556-0.608,1.06-1.308,1.498-2.113C280.766,354.551,280.087,350.559,277.26,348.565z"/>
				<path fill="#D29B7D" d="M256.362,314.595c-1.089-1.697-3.24-1.468-4.673-0.433c-1.542,1.11-1.644,3.162-1.08,4.821
					c0.206,0.606,0.668,1.251,1.246,1.723c0.157,0.169,0.322,0.326,0.499,0.471c1.431,1.201,3.521-0.095,4.36-1.352
					C257.688,318.352,257.251,315.978,256.362,314.595z"/>
				<path fill="#D29B7D" d="M272.141,347.453c-1.151-0.4-2.513-0.558-3.677-0.149c-0.029,0-0.063,0.012-0.097,0.033
					c-0.183,0.064-0.357,0.15-0.532,0.245c-0.495,0.294-0.85,0.719-1.105,1.2c-0.525,0.61-0.911,1.319-0.957,2.202
					c-0.069,1.366,0.022,2.94,0.925,4.05c0.983,1.213,2.499,1.733,4.037,1.658c1.567-0.086,3.756-0.747,4.742-2.056
					C277.806,351.528,275.206,348.525,272.141,347.453z"/>
				<path fill="#D29B7D" d="M301.122,328.369c-0.471-3.995-1.916-7.932-3.81-11.324c-0.865-1.55-1.897-3.212-3.105-4.517
					c-7.463-8.064-21.217-10.736-30.762-5.019c-2.513,1.505-5.479,3.789-7.193,6.191c-6.654,9.333-5.44,22.732,2.234,31.061
					c1.972,2.134,4.589,4.519,7.186,5.862c5.375,2.777,11.416,3.886,17.384,2.615c6.357-1.358,11.841-5.207,15.062-10.946
					C300.519,338.021,301.701,333.276,301.122,328.369z"/>
				<path fill="#D29B7D" d="M301.122,328.369c-0.471-3.995-1.916-7.932-3.81-11.324c-0.865-1.55-1.897-3.212-3.105-4.517
					c-0.014-0.013-0.027-0.027-0.041-0.041c3.949,5.565,6.059,12.853,4.094,19.373c-2.542,8.439-9.277,14.067-17.922,15.407
					c-8.559,1.329-17.227-1.896-22.641-8.665c-3.297-4.119-5.272-9.369-5.508-14.659c-1.082,7.384,1.155,15.238,6.297,20.818
					c1.972,2.134,4.589,4.519,7.186,5.862c5.375,2.777,11.416,3.886,17.384,2.615c6.357-1.358,11.841-5.207,15.062-10.946
					C300.519,338.021,301.701,333.276,301.122,328.369z"/>
				<g>
					<path fill="#231F20" d="M273.879,316.103c-0.427-0.939-1.809-0.998-2.48-0.335c-0.613,0.605-0.619,1.621-0.014,2.232
						c0.652,0.664,2.049,0.643,2.479-0.301C274.124,317.118,274.139,316.685,273.879,316.103z"/>
					<path fill="#231F20" d="M278.531,336.948c-0.842,0-1.549,0.686-1.556,1.531c-0.008,0.833,0.69,1.549,1.529,1.549
						c0.841,0,1.547-0.681,1.556-1.526C280.066,337.663,279.369,336.948,278.531,336.948z"/>
					<path fill="#FFFFFF" d="M272.723,315.597c-0.779,0-0.785,1.206-0.006,1.206C273.493,316.803,273.5,315.597,272.723,315.597z"/>
					<path fill="#FFFFFF" d="M278.734,337.083c-0.917,0-0.927,1.426-0.011,1.426C279.647,338.509,279.655,337.083,278.734,337.083z"
						/>
					<path fill="#9F775F" d="M290.401,321.359c0.558-0.489,0.994-1.047,1.202-1.645c0.783-2.228-0.636-4.389-2.48-5.521
						c-0.057-0.04-0.129,0.046-0.076,0.094c1.509,1.368,3.098,3.758,1.401,5.66c-1.192,1.339-3.026,1.77-4.547,2.568
						c-0.341,0.181-0.204,0.769,0.196,0.745c0.775-0.051,4.391-1.636,6.76,0.3c1.723,1.401,1.94,4.318,0.565,5.987
						c-0.114,0.133,0.057,0.304,0.191,0.194C296.756,327.16,293.984,321.838,290.401,321.359z"/>
					<path fill="#231F20" d="M285.796,321.649c-0.473-0.544-1.253-1.188-2.017-1.201c-0.272-0.005-0.52,0.058-0.741,0.158
						c-0.39,0.077-0.745,0.314-0.964,0.737c-0.371,0.723-0.211,1.775-0.108,2.554c0.091,0.686,0.405,1.34,0.841,1.886
						c0.15,0.232,0.332,0.426,0.556,0.557c0,0,0.006,0.008,0.012,0.01c0.026,0.018,0.049,0.027,0.079,0.042
						c0.666,0.396,1.481,0.283,2.099-0.208c0.281-0.218,0.408-0.648,0.497-0.969c0.111-0.416,0.354-0.803,0.465-1.229
						C286.765,323.022,286.41,322.368,285.796,321.649z"/>
					<g>
						<path fill="#FFFFFF" d="M283.587,321.246c0.004,0.007-0.087-0.152-0.115-0.209c-0.081-0.115-0.206-0.174-0.335-0.167
							c-0.834-0.158-1.262,1.114-1.215,1.763c0.057,0.806,1.063,0.917,1.359,0.193c0.128-0.311,0.203-0.641,0.271-0.967
							c0.039-0.177,0.07-0.266,0.073-0.409C283.629,321.38,283.617,321.311,283.587,321.246z"/>
						<path fill="#FFFFFF" d="M283.472,321.037c0.008,0.007,0.013,0.012,0.016,0.021
							C283.458,321.01,283.458,321.011,283.472,321.037z"/>
					</g>
				</g>
			</g>
			<path fill="#EC7B23" d="M274.688,111.119l4.787,0.639c0,0-2.712-3.511-5.107-3.672c0,0,0.32-5.427,0.479-6.385l-3.351,4.628
				c0,0-6.864-14.682-26.491-21.701c-19.633-7.023-38.626-3.513-42.614,0.955c0,0-15.799-2.711-32.557,23.459l10.694,5.907
				c0,0,4.786-9.896,2.39-0.318h1.918c0,0,9.097,1.674,17.476,1.914c8.377,0.239,10.691,1.354,10.691,1.354s2.474-6.06,5.744-8.778
				c0,0-2.629,5.828-2.392,7.901c0,0,20.987,4.389,25.775,7.659c0,0,2.71-5.346,4.311-6.783l0.238,6.229l5.105-5.989
				c0,0-1.598,6.226-2.713,14.445c-1.116,8.218-2.877,13.724-2.315,14.604c0.558,0.875,3.193,1.355,4.068,1.757
				c0.88,0.396-1.673,6.54-5.744,13.485c-4.068,6.942-5.347,8.375-5.347,8.375s16.739,6.784,32.538-12.524
				C288.074,138.968,279.475,114.312,274.688,111.119z"/>
			<path opacity="0.4" fill="#EC7B23" d="M277.5,114.823c0.637,7.251-1.753,14.644-4.59,21.242
				c-2.222,5.169-5.438,12.827-11.283,14.776c-0.223,0.075-0.553-0.084-0.588-0.334c-1.144-8.323-1.093-16.814-2.842-25.047
				c-1.552,5.209-2.274,10.646-4.314,15.711c-0.187,0.462-0.977,0.455-0.939-0.127c0.25-3.941,0.874-7.834,1.267-11.76
				c0.339-3.387,0.302-6.724,0.325-10.119c0.04-5.579,0.44-11.424-1.09-16.851c-1.416,5.069-2.752,10.508-6.328,14.473
				c-0.26,0.287-0.871,0.081-0.815-0.338c0.475-3.626,1.184-7.213,1.848-10.806c-1.437,2.684-2.914,5.349-4.386,8.015
				c-0.934,1.691-2.002,4.959-4.219,5.406c-1.836,0.37-3.735-0.308-5.415-1.01c-2.045-0.854-4.05-1.816-6.05-2.771
				c-1.425-0.682-3.648-1.595-4.18-3.28c-0.633-2.008,0.073-4.117,1.168-6.144c-0.61,0.778-1.186,1.578-1.675,2.431
				c-1.103,1.922-1.984,4.194-3.744,5.625c-0.384,0.312-0.877,0.019-0.799-0.465c0.87-5.436,3.025-10.516,5.806-15.253
				c-4.723,3.967-8.796,8.543-10.988,14.25c-0.072,0.188-0.236,0.37-0.461,0.351c-9.17-0.767-18.254-2.457-27.468-2.693
				c-0.313-0.008-0.54-0.299-0.46-0.604c1.553-5.962,4.884-11.325,9.118-15.833c-6.333,3.966-12.238,9.088-15.246,15.842
				c-0.1,0.223-0.459,0.311-0.654,0.171c-1.497-1.072-2.574-2.588-4.129-3.591c-0.236-0.151-0.283-0.408-0.172-0.653
				c1.889-4.167,4.589-7.699,7.633-10.956c-3.792,3.415-7.865,8.108-11.996,14.56l10.694,5.907c0,0,4.786-9.896,2.39-0.318h1.918
				c0,0,9.097,1.674,17.476,1.914c8.377,0.239,10.691,1.354,10.691,1.354s2.474-6.06,5.744-8.778c0,0-2.629,5.828-2.392,7.901
				c0,0,20.987,4.389,25.775,7.659c0,0,2.71-5.346,4.311-6.783l0.238,6.229l5.105-5.989c0,0-1.598,6.226-2.713,14.445
				c-1.116,8.218-2.877,13.724-2.315,14.604c0.558,0.875,3.193,1.355,4.068,1.757c0.88,0.396-1.673,6.54-5.744,13.485
				c-4.068,6.942-5.347,8.375-5.347,8.375s16.739,6.784,32.538-12.524C285.206,142.472,281.791,123.091,277.5,114.823z"/>
			<path fill="#F4D9BF" d="M248.934,150.74c0,0,3.77-5.925,10.951-0.359s-2.872,18.132-16.876,12.028L248.934,150.74z"/>
			<path opacity="0.5" fill="#EFCAA6" d="M248.934,150.74c0,0,3.77-5.925,10.951-0.359s-2.872,18.132-16.876,12.028L248.934,150.74z
				"/>
			<path fill="#C39368" d="M187.359,136.661c1.05,0.078,1.903,0.632,2.611,1.359c-1.327-0.431-2.833-0.333-4.194,0.132
				c-0.098,0.033-0.268,0.244-0.337,0.403c1.033-0.17,2.056-0.202,3.041-0.064c0.433,0.041,0.854,0.129,1.25,0.275
				c0.766,0.234,1.497,0.581,2.176,1.074c0.125-0.157,0.215-0.346,0.167-0.448c-1.155-2.476-2.587-3.841-5.422-3.775
				c-1.074,0.024-2.26,0.366-3.151,0.99c-0.169,0.118-0.678,0.455-1.206,0.859c-0.402,0.487-0.898,1.095-1.181,1.708
				C182.872,137.462,184.793,136.473,187.359,136.661z"/>
			<path fill="#C39368" d="M218.929,138.851c1.504-0.661,3.063-1.017,4.936-1.093c1.241-0.051,3.865,0.147,5.346,1.11
				c-0.768-0.808-1.745-1.416-2.828-1.853c-0.732-0.132-1.422-0.197-1.929-0.221c-3.314-0.149-5.865,1.136-8.461,2.96
				c-0.062,0.042-0.141,0.144-0.216,0.263c3.189-1.074,6.742-0.588,9.759,0.887c0.006-0.074-0.004-0.143-0.052-0.188
				C223.568,138.925,221.244,138.479,218.929,138.851z"/>
			<path fill="#C39368" d="M203,146.512c-0.511-0.206-1.425-0.747-2.433-1.236c0.049-0.146,0.066-0.252,0.089-0.415
				c0.024-0.173,0.126-0.294,0.184-0.45c0.146-0.393,0.313-0.775,0.488-1.155c0.117-0.257-0.198-0.118-0.271,0.016
				c-0.22,0.409-0.393,0.877-0.647,1.262c-0.088,0.132-0.196,0.341-0.255,0.549c-1.705-0.776-3.565-1.265-4.201,0.31
				c-1.177,2.913,0.602,6.899,3.177,8.444c0.212,0.127,0.666-0.395,0.535-0.587c-1.41-2.067-2.856-3.847-3.021-6.459
				c-0.061-0.96-0.299-1.284,0.833-1.306c0.739-0.016,1.465,0.151,2.187,0.277c1.133,0.197,2.032,0.838,3.105,1.127
				C202.902,146.925,203.159,146.576,203,146.512z"/>
			<path fill="#C39368" d="M257.058,152.441c-1.329-1.04-3.301-0.175-4.514,0.568c-1.282,0.787-2.515,1.933-3.169,3.308
				c-0.444,0.934-1.216,3.063-0.49,3.969c0.105,0.13,0.378-0.251,0.363-0.353c-0.177-1.296,0.264-2.598,0.994-3.713
				c0.896,1.293,4.788,2.237,5.402,2.361c0.129,0.026,0.378-0.312,0.222-0.362c-1.167-0.387-2.407-0.908-3.439-1.585
				c-0.322-0.212-1.247-0.747-1.552-1.25c0.469-0.544,0.997-1.018,1.537-1.388c1.147-0.787,2.522-1.104,3.835-0.544
				c0.483,0.207,2.11,1.599,1.971,2.279c-0.054,0.268,0.282-0.021,0.324-0.119C259.002,154.557,257.842,153.053,257.058,152.441z"/>
		</g>
		<path fill="#79D2F7" d="M268.835,128.755c-0.04-0.104-0.079-0.207-0.136-0.312c-1.112-2.068-3.555-2.655-5.654-1.914
			c-1.589,0.56-3.673,2.139-4.354,3.835c-0.156,0.256-0.286,0.52-0.372,0.792c-0.024,0.081-0.021,0.154-0.001,0.222
			c0.544-0.091,1.11-0.147,1.692-0.182c0.722-0.207,1.458-0.268,2.258-0.196c0.271,0.023,0.537,0.065,0.804,0.116
			c1.146-0.024,2.275-0.079,3.323-0.266C267.428,130.35,268.318,129.671,268.835,128.755z"/>
		<path fill="#79D2F7" d="M273.828,140.15c-1.065-0.672-2.269-0.947-3.492-1.094c-0.191-0.059-0.383-0.103-0.571-0.122
			c0.311,0.677,0.62,1.367,0.955,2.041c0.021,0.029,0.046,0.056,0.065,0.086c0.361,0.505,0.712,1.105,1.217,1.487
			c0.722,0.54,2.232,1.019,2.833,0.014C275.32,141.745,274.5,140.571,273.828,140.15z"/>
		<path fill="#79D2F7" d="M257.299,137.904c0.474,0.312,0.867,0.787,1.209,1.198c0.409,0.497,0.76,1.038,1.103,1.582
			c1.297,1.422,2.7,2.734,4.239,3.891c0.596,0.062,1.153-0.164,1.549-0.903c0.903-1.677-1.043-3.978-2.104-5.021
			c-1.437-1.417-3.838-2.491-5.919-2.274c-0.37-0.018-0.746,0.011-1.127,0.09C256.591,136.953,256.94,137.432,257.299,137.904z"/>
	</g>
</g>
</svg>
